<svg version="1.2" xmlns="http://www.w3.org/2000/svg" viewBox="0 0 9000 4000" width="9000" height="4000">
	<title>30080177_benner_5</title>
	<style>
		.s0 { fill: #2d2d2d } 
	</style>
	<path id="&lt;Compound Path&gt;" fill-rule="evenodd" class="s0" d="m11.2 4000h19.2l74.1-128.4 15 26 59.1 102.4h19.1l-63.9-110.7-19.7-34.3 19.7-34.2v-0.1l65.1-112.7 37.2 64.4 7.2 12.4 7.1-12.4 37.2-64.4 65.1 112.8 19.8 34.2-19.8 34.3-63.9 110.7h19.1l59.1-102.4 15-26 74.2 128.4h19.1l-83.7-145 92-159.4 2.4-4.1-2.4-4.2-92-159.4 92-159.4 2.4-4.1-2.4-4.2-92-159.4 92-159.4 2.4-4.1-2.4-4.2-92-159.4 92-159.4 2.4-4.1-2.4-4.2-92-159.4 92-159.4 2.4-4.1-2.4-4.2-92-159.4 92-159.4 2.4-4.1-2.4-4.2-92-159.4 92-159.4 2.4-4.1-2.4-4.2-92-159.4 92-159.4 2.4-4.1-2.4-4.2-92-159.4 92-159.4 2.4-4.1-2.4-4.2-92-159.4 92-159.4 2.4-4.1-2.4-4.2-92-159.4 92-159.4 2.4-4.1-2.4-4.2-116.6-202-116.6-201.9-7.1-12.4-7.2 12.4-116.6 202v-0.1l-116.6 202-2.4 4.2 2.4 4.1 92 159.4-92 159.4-2.4 4.2 2.4 4.1 92 159.4-92 159.4-2.4 4.2 2.4 4.1 92 159.4-92 159.4-2.4 4.2 2.4 4.1 92 159.4-92 159.4-2.4 4.2 2.4 4.1 92 159.4-92 159.4-2.4 4.2 2.4 4.1 92 159.4-92 159.4-2.4 4.2 2.4 4.1 92 159.4-92 159.4-2.4 4.2 2.4 4.1 92 159.4-92 159.4-2.4 4.2 2.4 4.1 92 159.4-92 159.4-2.4 4.2 2.4 4.1 92 159.4-92 159.4-2.4 4.2 2.4 4.1 92 159.4zm266.9-3252.4l-34.8-60.3-34.8 60.3 34.8 60.3zm-173.6 147l15-26 69.9-121-69.9-121-15-26-84.9 147zm192.7-147l69.9 121 15 26 84.8-147-84.8-147-15 26zm-46.8-81l37.2 64.4 65.1-112.7 19.8-34.3-19.8-34.2-109.4-189.6-109.5 189.5v0.1l-19.8 34.2 19.8 34.3 65.1 112.8 37.2-64.4 7.2-12.5zm27.6 408.1l-34.8-60.3-34.8 60.3 34.8 60.3zm-173.6 147l15-26h0.1l69.8-121-69.8-121h-0.1l-15-26-84.8 147zm192.6-147l69.9 121 15 26 84.9-147-84.9-147-15 26zm-46.7-81l37.1 64.4 65.1-112.7 19.8-34.3-19.8-34.2-65.1-112.8-37.1 64.5-7.2 12.4-7.2-12.5-37.2-64.4-65 112.7v0.1l-19.8 34.2 19.8 34.3 65 112.8 37.2-64.4 7.2-12.5zm27.6 408.1l-34.8-60.3-34.8 60.3 34.8 60.3zm-173.5 147l15-26 69.8-121-69.8-121-15-26-84.9 147zm192.7-147l69.8 121 15 26 84.9-147-84.9-147-15 26zm-46.7-81l37.2 64.4 65.1-112.7 19.7-34.3-19.7-34.2-65.1-112.8-37.2 64.5-7.2 12.4-7.1-12.5-37.2-64.4-65.1 112.7v0.1l-19.8 34.2 19.8 34.3 65.1 112.8 37.2-64.4 7.1-12.5zm27.7 408.1l-34.8-60.3-34.8 60.3 34.8 60.3zm-173.6 147l15-26 69.9-121-69.9-121-15-26-84.9 147zm192.7-147l69.9 121 15 26 84.8-147-84.8-147-15 26zm-46.8-81l37.2 64.4 65.1-112.7 19.8-34.3-19.8-34.2-65.1-112.8-37.2 64.5-7.1 12.4-7.2-12.5-37.2-64.4-65.1 112.7v0.1l-19.7 34.2 19.7 34.3 65.1 112.8 37.2-64.4 7.2-12.5zm27.6 408.1l-34.8-60.3-34.8 60.3 34.8 60.3zm-173.6 147l15-26h0.1l69.8-121-69.8-121h-0.1l-15-26-84.8 147zm192.6-147l69.9 121 15 26 84.9-147-84.9-147-15 26zm-46.7-81l37.2 64.4 65-112.7 19.8-34.3-19.8-34.2-65-112.8-37.2 64.5-7.2 12.4-7.2-12.5-37.2-64.4-65 112.7v0.1l-19.8 34.2 19.8 34.3 65 112.8 37.2-64.4 7.2-12.5zm27.6 408.1l-34.8-60.3-34.8 60.3 34.8 60.3zm-173.5 147l15-26 69.8-121-69.8-121-15-26-84.9 147zm192.7-147l69.8 121 15 26 84.9-147-84.9-147-15 26zm-46.7-81l37.2 64.4 65.1-112.7 19.7-34.3-19.7-34.2-65.1-112.8-37.2 64.5-7.2 12.4-7.1-12.5-37.2-64.4-65.1 112.7v0.1l-19.8 34.2 19.8 34.3 65.1 112.8 37.2-64.4 7.1-12.5zm27.7 408.1l-34.8-60.3-34.8 60.3 34.8 60.3zm-173.6 147l15-26 69.9-121-69.9-121-15-26-84.9 147zm192.7-147l69.9 121 15 26 84.8-147-84.8-147-15 26zm-46.8-81l37.2 64.4 65.1-112.7 19.8-34.3-19.8-34.2-65.1-112.8-37.2 64.5-7.1 12.4-7.2-12.5-37.2-64.4-65.1 112.7v0.1l-19.7 34.2 19.7 34.3 65.1 112.8 37.2-64.4 7.2-12.5zm27.6 408.1l-34.8-60.3-34.8 60.3 34.8 60.3zm-173.6 147l15-26h0.1l69.8-121-69.8-121h-0.1l-15-26-84.8 147zm192.6-147l69.9 121 15 26 84.9-147-84.9-147-15 26zm-46.7-81l37.2 64.4 65-112.7 19.8-34.3-19.8-34.2-65-112.7-37.2 64.4-7.2 12.4-7.2-12.5-37.2-64.4-65 112.7v0.1l-19.8 34.2 19.8 34.3 65 112.8 37.2-64.4 7.2-12.5zm27.6 408.1l-34.8-60.3-34.8 60.3 34.8 60.3zm-173.5 147l15-26 69.8-121-69.8-121-15-26-84.9 147zm192.7-147l69.8 121 15.1 26 84.8-147-84.8-147-15.1 26zm-46.7-81l37.2 64.4 65.1-112.7 19.7-34.3-19.7-34.2-65.1-112.7-37.2 64.4-7.2 12.4-7.1-12.5-37.2-64.4-65.1 112.8-19.8 34.2 19.8 34.3 65.1 112.8 37.2-64.4 7.1-12.5zm27.7 408.1l-34.8-60.3-34.8 60.3 34.8 60.3zm-173.6 147l15-26 69.9-121-69.9-121-15-26-84.9 147zm192.7-147l69.9 121 15 26 84.9-147-84.9-147-15 26zm-46.8-81l37.2 64.4 65.1-112.7 19.8-34.2-19.8-34.3-65.1-112.7-37.2 64.4-7.1 12.4-7.2-12.5-37.2-64.4-65.1 112.8-19.7 34.3 19.7 34.2 65.1 112.8 37.2-64.4 7.2-12.5zm533.7-3610.5h-19.1l35.3 61.3 114.2 197.8-84.8 147-15-26-116.7-202-7.1-12.4-7.2 12.4-116.6 202-15 26-84.9-147 114.3-197.8v-0.1l35.3-61.2h-19.1l-30.6 53-116.6 201.9-2.4 4.2 2.4 4.1 92 159.4-92 159.4-2.4 4.2 2.4 4.1 92 159.4-92 159.4-2.4 4.2 2.4 4.1 92 159.4-92 159.4-2.4 4.2 2.4 4.1 92 159.4-92 159.4-2.4 4.2 2.4 4.1 92 159.4-92 159.4-2.4 4.2 2.4 4.1 92 159.4-92 159.4-2.4 4.2 2.4 4.1 92 159.4-92 159.4-2.4 4.2 2.4 4.1 92 159.4-92 159.4-2.4 4.2 2.4 4.1 92 159.4-92 159.4-2.4 4.2 2.4 4.1 92 159.4-92 159.4-2.4 4.2 2.4 4.1 92 159.4-92 159.4-2.4 4.2 2.4 4.1 80.1 138.7h19.1l-82.5-142.8 84.9-147 15 26 69.9 121-69.9 121-12.6 21.8h19.1l7.9-13.5 65-112.8 37.2 64.4 7.2 12.5 7.1-12.4 37.2-64.4 65.1 112.7 7.8 13.5h19.2l-12.6-21.8-69.9-121 69.9-121 15-26 84.8 147-82.4 142.8h19.1l80.1-138.7 2.3-4.1-2.3-4.2-92.1-159.4 92.1-159.4 2.3-4.1-2.3-4.2-92.1-159.4 92.1-159.4 2.3-4.1-2.3-4.2-92.1-159.4 92.1-159.4 2.3-4.1-2.3-4.2-92.1-159.4 92.1-159.4 2.3-4.1-2.3-4.2-92.1-159.4 92.1-159.4 2.3-4.1-2.3-4.2-92.1-159.4 92.1-159.4 2.3-4.1-2.3-4.2-92.1-159.4 92.1-159.4 2.3-4.1-2.3-4.2-92.1-159.4 92.1-159.4 2.3-4.1-2.3-4.2-92.1-159.4 92.1-159.4 2.3-4.1-2.3-4.2-92.1-159.4 92.1-159.4 2.3-4.1-2.3-4.2-92.1-159.4 92.1-159.4 2.3-4.1-2.3-4.2-116.6-201.9zm-232 733.1l15-26 69.9-121-69.9-121-15-26-84.9 147zm192.7-147l69.8 121 15.1 26 84.8-147-84.8-147-15.1 26zm-46.7-80.9l37.2 64.4 65.1-112.8 19.8-34.2-19.8-34.3-109.5-189.5-109.4 189.5-19.8 34.3 19.8 34.2v0.1l65.1 112.7 37.2-64.4 7.1-12.4zm27.7 408l-34.8-60.2-34.8 60.2 34.8 60.3zm-173.6 147l15-26 69.9-121-69.9-121-15-26-84.9 147zm192.7-147l69.9 121 15 26 84.9-147-84.9-147-15 26zm-46.8-80.9l37.2 64.4 65.1-112.8 19.8-34.2-19.8-34.3-65.1-112.7-37.2 64.4-7.1 12.4-7.2-12.4-37.2-64.4-65.1 112.7-19.7 34.3 19.7 34.2v0.1l65.1 112.7 37.2-64.4 7.2-12.4zm27.6 408l-34.8-60.2-34.8 60.2 34.8 60.3zm-173.6 147l15-26h0.1l69.8-121-69.8-121h-0.1l-15-26-84.8 147zm192.7-147l69.8 121 15 26 84.9-147-84.9-147-15 26zm-46.7-80.9l37.2 64.4 65-112.8 19.8-34.2-19.8-34.3-65-112.7-37.2 64.4-7.2 12.4-7.2-12.4-37.2-64.4-65 112.7-19.8 34.3 19.8 34.2v0.1l65 112.7 37.2-64.4 7.2-12.4zm27.6 408l-34.8-60.2-34.8 60.2 34.8 60.3zm-173.5 147l15-26 69.8-121-69.8-121-15-26-84.9 147zm192.7-147l69.8 121 15 26 84.9-147-84.9-147-15 26zm-46.7-80.9l37.2 64.4 65.1-112.8 19.7-34.2-19.7-34.3-65.1-112.7-37.2 64.4-7.2 12.4-7.1-12.4-37.2-64.4-65.1 112.7-19.8 34.3 19.8 34.2v0.1l65.1 112.7 37.2-64.4 7.1-12.4zm27.7 408l-34.8-60.2-34.8 60.2 34.8 60.3zm-173.6 147l15-26 69.9-121-69.9-121-15-26-84.9 147zm192.7-147l69.9 121 15 26 84.8-147-84.8-147-15 26zm-46.8-80.9l37.2 64.4 65.1-112.8 19.8-34.2-19.8-34.3-65.1-112.7-37.2 64.4-7.1 12.4-7.2-12.4-37.2-64.4-65.1 112.7-19.8 34.3 19.8 34.2v0.1l65.1 112.7 37.2-64.4 7.2-12.4zm27.6 408l-34.8-60.2-34.8 60.2 34.8 60.3zm-173.6 147l15-26 69.9-121-69.9-121-15-26-84.8 147zm192.6-147l69.9 121 15 26 84.9-147-84.9-147-15 26zm-46.8-80.9l37.2 64.4 65.1-112.8 19.8-34.2-19.8-34.3-65.1-112.7-37.2 64.4-7.1 12.4-7.2-12.4-37.2-64.4-65.1 112.7-19.7 34.3 19.7 34.2v0.1l65.1 112.7 37.2-64.4 7.2-12.4zm27.6 408.1l-34.8-60.3-34.8 60.3 34.8 60.2zm-173.6 147l15.1-26 69.8-121-69.8-121-15.1-26-84.8 147zm192.7-147l69.8 121 15 26 84.9-147-84.9-147-15 26zm-46.7-80.9l37.2 64.4 65-112.8 19.8-34.2-19.8-34.3-65-112.7-37.2 64.4-7.2 12.4-7.2-12.4-37.1-64.4-65.1 112.7-19.8 34.3 19.8 34.2v0.1l65.1 112.7 37.1-64.4 7.2-12.4zm27.6 408l-34.8-60.2-34.8 60.2 34.8 60.3zm-173.5 147l15-26 69.9-121-69.9-121-15-26-84.9 147zm192.7-147l69.9 121 15 26 84.8-147-84.8-147-15 26zm-46.8-80.9l37.2 64.4 65.1-112.8 19.8-34.2-19.8-34.3-65.1-112.7-37.2 64.4-7.2 12.4-7.1-12.4-37.2-64.4-65.1 112.7-19.8 34.3 19.8 34.2v0.1l65.1 112.7 37.2-64.4 7.1-12.4zm27.7 408.1l-34.8-60.3-34.8 60.3 34.8 60.2zm-173.6 147l15-26 69.9-121-69.9-121-15-26-84.9 147zm192.7-147l69.9 121 15 26 84.9-147-84.9-147-15 26zm-46.8-80.9l37.2 64.4 65.1-112.8 19.8-34.2-19.8-34.3-65.1-112.7-37.2 64.4-7.1 12.4-7.2-12.4-37.2-64.4-65.1 112.7-19.7 34.3 19.7 34.2v0.1l65.1 112.7 37.2-64.4 7.2-12.4zm27.6 408.1l-34.8-60.3-34.8 60.3 34.8 60.2zm-173.6 147l15-26h0.1l69.8-121-69.8-121h-0.1l-15-26-84.8 147zm192.7-147l69.8 121 15 26 84.9-147-84.9-147-15 26zm-46.7-80.9l37.2 64.4 65-112.7 19.8-34.3-19.8-34.3-65-112.7-37.2 64.4-7.2 12.4-7.2-12.4-37.2-64.4-65 112.7-19.8 34.3 19.8 34.3 65 112.7 37.2-64.4 7.2-12.4zm27.6 408.1l-34.8-60.3-34.8 60.3 34.8 60.2zm-27.6-80.9l37.2 64.4 65.1-112.8 19.8-34.2-19.8-34.3-65.1-112.7-37.2 64.4-7.2 12.4-7.1-12.4-37.2-64.4-65.1 112.7-19.8 34.3 19.8 34.2v0.1l65.1 112.7 37.2-64.4 7.1-12.4zm212.4 223.8h19.1l74.1-128.4 15 26 59.2 102.4h19.1l-63.9-110.7-19.8-34.3 19.8-34.3 65-112.7 37.2 64.4 7.2 12.4 7.2-12.4 37.1-64.4 65.1 112.7 19.8 34.3-19.8 34.3-63.9 110.7h19.1l59.2-102.4 15-26 74.1 128.4h19.1l-83.7-145 92.1-159.4 2.4-4.1-2.4-4.2-92.1-159.4 92.1-159.4 2.4-4.1-2.4-4.2-92.1-159.4 92.1-159.4 2.4-4.1-2.4-4.2-92.1-159.4 92.1-159.4 2.4-4.1-2.4-4.2-92.1-159.4 92.1-159.4 2.4-4.1-2.4-4.2-92.1-159.4 92.1-159.4 2.4-4.2-2.4-4.1-92.1-159.4 92.1-159.4 2.4-4.2-2.4-4.1-92.1-159.4 92.1-159.4 2.4-4.2-2.4-4.1-92.1-159.4 92.1-159.4 2.4-4.2-2.4-4.1-92.1-159.4 92.1-159.4 2.4-4.2-2.4-4.1-92.1-159.4 92.1-159.4 2.4-4.2-2.4-4.1-116.6-202-116.6-201.9-7.2-12.4-7.2 12.4-116.6 201.9-116.6 202-2.4 4.1 2.4 4.2 92.1 159.4-92.1 159.4-2.4 4.1 2.4 4.2 92.1 159.4-92.1 159.4-2.4 4.1 2.4 4.2 92.1 159.4-92.1 159.4-2.4 4.1 2.4 4.2 92.1 159.4-92.1 159.4-2.4 4.1 2.4 4.2 92.1 159.4-92.1 159.4-2.4 4.1 2.4 4.2 92.1 159.4-92.1 159.4-2.4 4.2 2.4 4.1 92.1 159.4-92.1 159.4-2.4 4.2 2.4 4.1 92.1 159.4-92.1 159.4-2.4 4.2 2.4 4.1 92.1 159.4-92.1 159.4-2.4 4.2 2.4 4.1 92.1 159.4-92.1 159.4-2.4 4.2 2.4 4.1 92.1 159.4zm266.8-3252.4l-34.8-60.3-34.8 60.3 34.8 60.2zm-173.6 147l15-26 69.9-121-69.9-121-15-26-84.9 147zm192.7-146.9l69.9 120.9 15 26 84.9-146.9-84.9-147-15 26zm-46.8-81l37.2 64.4 65.1-112.7 19.8-34.3-19.8-34.3-109.4-189.5-109.5 189.5-19.7 34.3 19.7 34.3 65.1 112.7 37.2-64.4 7.2-12.4zm27.6 408.1l-34.8-60.3-34.8 60.3 34.8 60.2zm-173.6 147l15.1-26 69.8-121-69.8-121v0.1l-15.1-26-84.8 146.9zm192.7-146.9l69.8 120.9 15 26 84.9-146.9-84.9-147-15 26zm-46.7-81l37.2 64.4 65-112.7 19.8-34.3-19.8-34.2-65-112.8-37.2 64.4-7.2 12.4-7.2-12.4-37.1-64.4-65.1 112.7v0.1l-19.8 34.2 19.8 34.3 65.1 112.7 37.1-64.4 7.2-12.4zm27.6 408.1l-34.8-60.3-34.8 60.3 34.8 60.2zm-173.5 147l15-26 69.9-121-69.9-121v0.1l-15-26.1-84.9 147zm192.7-146.9l69.8 120.9 15.1 26 84.8-146.9-84.8-147-15.1 26zm-46.7-81l37.2 64.4 65.1-112.7 19.8-34.3-19.8-34.3-65.1-112.7-37.2 64.4-7.2 12.4-7.1-12.4-37.2-64.4-65.1 112.7-19.8 34.3 19.8 34.3 65.1 112.7 37.2-64.4 7.1-12.4zm27.7 408.1l-34.8-60.3-34.8 60.3 34.8 60.2zm-173.6 147l15-26 69.9-121-69.9-121v0.1l-15-26-84.9 146.9zm192.7-146.9l69.9 120.9 15 26 84.9-146.9-84.9-147-15 26zm-46.8-81l37.2 64.4 65.1-112.7 19.8-34.3-19.8-34.2-65.1-112.8-37.2 64.4-7.1 12.4-7.2-12.4-37.2-64.4-65.1 112.7v0.1l-19.7 34.2 19.7 34.3 65.1 112.7 37.2-64.4 7.2-12.4zm27.6 408.1l-34.8-60.3-34.8 60.3 34.8 60.2zm-173.6 147l15-26h0.1l69.8-121-69.8-121-0.1 0.1-15-26-84.8 146.9zm192.6-146.9l69.9 120.9 15 26 84.9-146.9-84.9-147-15 26zm-46.7-81l37.1 64.4 65.1-112.7 19.8-34.3-19.8-34.2-65.1-112.8-37.1 64.4-7.2 12.4-7.2-12.4-37.2-64.4-65 112.7v0.1l-19.8 34.2 19.8 34.3 65 112.7 37.2-64.4 7.2-12.4zm27.6 408.1l-34.8-60.3-34.8 60.3 34.8 60.2zm-173.5 147l15-26 69.8-121-69.8-121v0.1l-15-26-84.9 146.9zm192.7-146.9l69.8 120.9 15 26 84.9-146.9-84.9-147-15 26zm-46.7-81l37.2 64.4 65.1-112.7 19.7-34.3-19.7-34.2-65.1-112.8-37.2 64.4-7.2 12.4-7.1-12.4-37.2-64.4-65.1 112.7v0.1l-19.8 34.2 19.8 34.3 65.1 112.7 37.2-64.4 7.1-12.4zm27.7 408.1l-34.8-60.3-34.8 60.3 34.8 60.3zm-173.6 146.9l15-26 69.9-120.9-69.9-121.1v0.1l-15-26-84.9 147zm192.7-147l69.9 120.9 15 26.1 84.8-147-84.8-147-15 26zm-46.8-81l37.2 64.4 65.1-112.7 19.8-34.3-19.8-34.2-65.1-112.8-37.2 64.4-7.1 12.4-7.2-12.4-37.2-64.4-65.1 112.7v0.1l-19.8 34.2 19.8 34.3 65.1 112.7 37.2-64.4 7.2-12.4zm27.6 408.1l-34.8-60.3-34.8 60.3 34.8 60.2zm-173.6 147l15-26 69.9-121-69.9-121v0.1l-15-26-84.9 146.9zm192.7-146.9l69.9 120.9 15 26 84.9-146.9-84.9-147-15 26zm-46.8-81l37.2 64.4 65.1-112.7 19.8-34.3-19.8-34.2-65.1-112.8-37.2 64.4-7.1 12.4-7.2-12.4-37.2-64.4-65.1 112.7v0.1l-19.7 34.2 19.7 34.3 65.1 112.7 37.2-64.4 7.2-12.4zm27.6 408.1l-34.8-60.3-34.8 60.3 34.8 60.3zm-173.6 146.9l15.1-26 69.8-120.9-69.8-121-15.1-26-84.8 147zm192.7-147l69.8 121 15 26 84.9-147-84.9-147-15 26zm-46.7-81l37.2 64.4 65-112.7 19.8-34.3-19.8-34.2-65-112.8-37.2 64.4-7.2 12.4-7.2-12.4-37.1-64.4-65.1 112.7v0.1l-19.8 34.2 19.8 34.3 65.1 112.7 37.1-64.4 7.2-12.4zm27.6 408.1l-34.8-60.3-34.8 60.3 34.8 60.3zm-173.5 146.9l15-26v0.1l69.9-121-69.9-121-15-26-84.9 147zm192.7-147l69.9 121 15 26 84.8-147-84.8-147-15 26zm-46.8-81l37.2 64.4 65.1-112.7 19.8-34.3-19.8-34.2-65.1-112.8-37.2 64.4-7.2 12.4-7.1-12.4-37.2-64.4-65.1 112.7v0.1l-19.8 34.2 19.8 34.3 65.1 112.7 37.2-64.4 7.1-12.4zm533.8-3610.5h-19.2l35.4 61.2 114.2 197.8-84.9 147-15-26-116.6-201.9-7.1-12.4-7.2 12.4-116.6 201.9-15 26-84.9-147 114.2-197.8 35.4-61.2h-19.1l-30.6 52.9-116.6 202-2.4 4.2 2.4 4.1 92 159.4-92 159.4-2.4 4.2 2.4 4.1 92 159.4-92 159.4-2.4 4.2 2.4 4.1 92 159.4-92 159.4-2.4 4.2 2.4 4.1 92 159.4-92 159.4-2.4 4.2 2.4 4.1 92 159.4-92 159.4-2.4 4.2 2.4 4.1 92 159.4-92 159.4-2.4 4.2 2.4 4.1 92 159.4-92 159.4-2.4 4.2 2.4 4.1 92 159.4-92 159.4-2.4 4.2 2.4 4.1 92 159.4-92 159.4-2.4 4.2 2.4 4.1 92 159.4-92 159.4-2.4 4.2 2.4 4.1 92 159.4-92 159.4-2.4 4.2 2.4 4.1 80.1 138.7h19.1l-82.5-142.8 84.9-147 15 26 69.9 121-69.9 121-12.6 21.8h19.1l7.8-13.5v-0.1l65.1-112.7 37.2 64.4 7.2 12.4 7.1-12.4 37.2-64.4 65.1 112.8 7.8 13.5h19.1l-12.6-21.8-69.8-121 69.8-121 15-26 84.9 147-82.5 142.8h19.2l80-138.7 2.4-4.1-2.4-4.2-92-159.4 92-159.4 2.4-4.1-2.4-4.2-92-159.4 92-159.4 2.4-4.1-2.4-4.2-92-159.4 92-159.4 2.4-4.1-2.4-4.2-92-159.4 92-159.4 2.4-4.1-2.4-4.2-92-159.4 92-159.4 2.4-4.1-2.4-4.2-92-159.4 92-159.4 2.4-4.1-2.4-4.2-92-159.4 92-159.4 2.4-4.1-2.4-4.2-92-159.4 92-159.4 2.4-4.1-2.4-4.2-92-159.4 92-159.4 2.4-4.1-2.4-4.2-92-159.4 92-159.4 2.4-4.1-2.4-4.2-92-159.4 92-159.4 2.4-4.1-2.4-4.2-116.6-202zm-232 733.2l15.1-26 69.8-121-69.8-121-15.1-26-84.8 147zm192.7-147l69.8 121 15 26 84.9-147-84.9-147-15 26zm-46.7-81l37.2 64.4 65.1-112.7 19.7-34.2-19.7-34.3-109.5-189.6-109.4 189.6-19.8 34.3 19.8 34.2 65.1 112.8 37.1-64.4 7.2-12.5zm27.6 408.1l-34.8-60.3-34.8 60.3 34.8 60.3zm-173.5 147l15-26 69.9-121-69.9-121-15-26-84.9 147zm192.7-147l69.9 121 15 26 84.8-147-84.8-147-15 26zm-46.8-81l37.2 64.4 65.1-112.7 19.8-34.2-19.8-34.3-65.1-112.7-37.2 64.4-7.1 12.4-7.2-12.5-37.2-64.4-65.1 112.8-19.8 34.3 19.8 34.2 65.1 112.8 37.2-64.4 7.2-12.5zm27.6 408.1l-34.8-60.3-34.8 60.3 34.8 60.3zm-173.6 147l15-26 69.9-121-69.9-121-15-26-84.9 147zm192.7-147l69.9 121 15 26 84.9-147-84.9-147-15 26zm-46.8-81l37.2 64.4 65.1-112.7 19.8-34.2-19.8-34.3-65.1-112.7-37.2 64.4-7.1 12.4-7.2-12.5-37.2-64.4-65.1 112.8-19.7 34.3 19.7 34.2 65.1 112.8 37.2-64.4 7.2-12.5zm27.6 408.1l-34.8-60.3-34.8 60.3 34.8 60.3zm-173.6 147l15.1-26 69.8-121-69.8-121-15.1-26-84.8 147zm192.7-147l69.8 121 15 26 84.9-147-84.9-147-15 26zm-46.7-81l37.2 64.4 65.1-112.7 19.7-34.2-19.7-34.3-65.1-112.7-37.2 64.4-7.2 12.4-7.2-12.5-37.1-64.4-65.1 112.8-19.8 34.3 19.8 34.2 65.1 112.8 37.1-64.4 7.2-12.5zm27.6 408.1l-34.8-60.3-34.8 60.3 34.8 60.3zm-173.5 147l15-26 69.9-121-69.9-121-15-26-84.9 147zm192.7-147l69.9 121 15 26 84.8-147-84.8-147-15 26zm-46.8-81l37.2 64.4 65.1-112.7 19.8-34.2-19.8-34.3-65.1-112.7-37.2 64.4-7.1 12.4-7.2-12.5-37.2-64.4-65.1 112.8-19.8 34.3 19.8 34.2 65.1 112.8 37.2-64.4 7.2-12.5zm27.6 408.1l-34.8-60.3-34.8 60.3 34.8 60.3zm-173.6 147l15-26 69.9-121-69.9-121-15-26-84.9 147zm192.7-147l69.9 121 15 26 84.9-147-84.9-147-15 26zm-46.8-81l37.2 64.4 65.1-112.7 19.8-34.2-19.8-34.3-65.1-112.7-37.2 64.4-7.1 12.4-7.2-12.5-37.2-64.4-65.1 112.8-19.7 34.3 19.7 34.2 65.1 112.8 37.2-64.4 7.2-12.4zm27.6 408l-34.8-60.3-34.8 60.3 34.8 60.3zm-173.6 147l15.1-26 69.8-121-69.8-121-15.1-26-84.8 147zm192.7-147l69.8 121 15 26 84.9-147-84.9-147-15 26zm-46.7-81l37.2 64.4 65.1-112.7 19.7-34.2-19.7-34.3-65.1-112.7-37.2 64.4-7.2 12.4-7.2-12.5-37.1-64.4-65.1 112.8-19.8 34.3 19.8 34.2 65.1 112.8 37.1-64.4 7.2-12.4zm27.6 408l-34.8-60.3-34.8 60.3 34.8 60.3zm-173.5 147l15-26 69.9-121-69.9-121-15-26-84.9 147zm192.7-147l69.9 121 15 26 84.8-147-84.8-147-15 26zm-46.8-81l37.2 64.5 65.1-112.8 19.8-34.2-19.8-34.3-65.1-112.7-37.2 64.4-7.1 12.4-7.2-12.5-37.2-64.4-65.1 112.8-19.8 34.3 19.8 34.2v0.1l65.1 112.7 37.2-64.4 7.2-12.4zm27.6 408l-34.8-60.2-34.8 60.2 34.8 60.3zm-173.6 147l15-26 69.9-121-69.9-121-15-26-84.9 147zm192.7-147l69.9 121 15 26 84.9-147-84.9-147-15 26zm-46.8-81l37.2 64.5 65.1-112.8 19.8-34.2-19.8-34.3-65.1-112.7-37.2 64.4-7.1 12.4-7.2-12.4-37.2-64.5-65.1 112.8-19.7 34.3 19.7 34.2v0.1l65.1 112.7 37.2-64.4 7.2-12.4zm27.6 408l-34.8-60.2-34.8 60.2 34.8 60.3zm-173.5 147l15-26 69.8-121-69.8-121-15-26-84.9 147zm192.7-147l69.8 121 15 26 84.9-147-84.9-147-15 26zm-46.7-80.9l37.2 64.4 65.1-112.8 19.7-34.2-19.7-34.3-65.1-112.7-37.2 64.4-7.2 12.4-7.2-12.4-37.1-64.5-65.1 112.8-19.8 34.3 19.8 34.2v0.1l65.1 112.7 37.1-64.4 7.2-12.4zm27.6 408l-34.8-60.2-34.8 60.2 34.8 60.3zm-27.6-81l37.2 64.4 65.1-112.7 19.8-34.2-19.8-34.3-65.1-112.7-37.2 64.4-7.1 12.4-7.2-12.5-37.2-64.4-65.1 112.8-19.8 34.3 19.8 34.2 65.1 112.8 37.2-64.4 7.2-12.5zm212.3 223.8h19.1l74.1-128.4 15 26h0.1l59.1 102.4h19.1l-63.9-110.6v-0.1l-19.8-34.2 19.8-34.3 65.1-112.7 37.1 64.4 7.2 12.4 7.2-12.4 37.2-64.4 65 112.7 19.8 34.3-19.8 34.2-63.9 110.7h19.1l59.2-102.4 15-26 74.1 128.4h19.1l-83.7-144.9 92.1-159.4 2.4-4.2-2.4-4.1-92.1-159.4 92.1-159.4 2.4-4.2-2.4-4.1-92.1-159.4 92.1-159.4 2.4-4.2-2.4-4.1-92.1-159.4 92.1-159.4 2.4-4.2-2.4-4.1-92.1-159.4 92.1-159.4 2.4-4.2-2.4-4.1-92.1-159.4 92.1-159.4 2.4-4.2-2.4-4.1-92.1-159.4 92.1-159.4 2.4-4.2-2.4-4.1-92.1-159.4 92.1-159.4 2.4-4.2-2.4-4.1-92.1-159.4 92.1-159.4 2.4-4.2-2.4-4.1-92.1-159.4 92.1-159.4 2.4-4.2-2.4-4.1-92.1-159.4 92.1-159.4 2.4-4.2-2.4-4.1-116.6-202-116.6-202-7.2-12.4-7.2 12.5-116.5 201.9h-0.1l-116.6 202-2.4 4.1 2.4 4.2 92.1 159.4-92.1 159.4-2.4 4.1 2.4 4.2 92.1 159.4-92.1 159.4-2.4 4.1 2.4 4.2 92.1 159.4-92.1 159.4-2.4 4.1 2.4 4.2 92.1 159.4-92.1 159.4-2.4 4.1 2.4 4.2 92.1 159.4-92.1 159.4-2.4 4.1 2.4 4.2 92.1 159.4-92.1 159.4-2.4 4.1 2.4 4.2 92.1 159.4-92.1 159.4-2.4 4.1 2.4 4.2 92.1 159.4-92.1 159.4-2.4 4.1 2.4 4.2 92.1 159.4-92.1 159.4-2.4 4.1 2.4 4.2 92.1 159.4-92.1 159.4-2.4 4.1 2.4 4.2 92.1 159.4zm266.8-3252.5l-34.8-60.2-34.8 60.2 34.8 60.3zm-173.6 147l15-26h0.1l69.8-121-69.8-121h-0.1l-15-26-84.8 147zm192.7-147l69.8 121 15 26 84.9-147-84.9-147-15 26zm-46.7-80.9l37.2 64.4 65-112.8 19.8-34.2-19.8-34.3-109.4-189.5-109.4 189.5-19.8 34.3 19.8 34.2v0.1l65 112.7 37.2-64.4 7.2-12.4zm27.6 408l-34.8-60.2-34.8 60.2 34.8 60.3zm-173.5 147l15-26 69.8-121-69.8-121-15-26-84.9 147zm192.7-147l69.8 121 15.1 26 84.8-147-84.8-147-15.1 26zm-46.7-80.9l37.2 64.4 65.1-112.8 19.7-34.2-19.7-34.3-65.1-112.7-37.2 64.4-7.2 12.4-7.1-12.4-37.2-64.4-65.1 112.7-19.8 34.3 19.8 34.2v0.1l65.1 112.7 37.2-64.4 7.1-12.4zm27.7 408l-34.8-60.2-34.8 60.2 34.8 60.3zm-173.6 147l15-26 69.9-121-69.9-121-15-26-84.9 147zm192.7-147l69.9 121 15 26 84.9-147-84.9-147-15 26zm-46.8-80.9l37.2 64.4 65.1-112.8 19.8-34.2-19.8-34.3-65.1-112.7-37.2 64.4-7.1 12.4-7.2-12.4-37.2-64.4-65.1 112.7-19.7 34.3 19.7 34.2v0.1l65.1 112.7 37.2-64.4 7.2-12.4zm27.6 408l-34.8-60.2-34.8 60.2 34.8 60.3zm-173.6 147l15-26h0.1l69.8-121-69.8-121h-0.1l-15-26-84.8 147zm192.7-147l69.8 121 15 26 84.9-147-84.9-147-15 26zm-46.7-80.9l37.2 64.4 65-112.8 19.8-34.2-19.8-34.3-65-112.7-37.2 64.4-7.2 12.4-7.2-12.4-37.1-64.4-65.1 112.7-19.8 34.3 19.8 34.2v0.1l65.1 112.7 37.1-64.4 7.2-12.4zm27.6 408l-34.8-60.2-34.8 60.2 34.8 60.3zm-173.5 147l15-26 69.8-121-69.8-121-15-26-84.9 147zm192.7-147l69.8 121 15.1 26 84.8-147-84.8-147-15.1 26zm-46.7-80.9l37.2 64.4 65.1-112.8 19.7-34.2-19.7-34.3-65.1-112.7-37.2 64.4-7.2 12.4-7.1-12.4-37.2-64.4-65.1 112.7-19.8 34.3 19.8 34.2v0.1l65.1 112.7 37.2-64.4 7.1-12.4zm27.7 408l-34.8-60.2-34.8 60.2 34.8 60.3zm-173.6 147l15-26 69.9-121-69.9-121-15-26-84.9 147zm192.7-147l69.9 121 15 26 84.9-147-84.9-147-15 26zm-46.8-80.9l37.2 64.4 65.1-112.8 19.8-34.2-19.8-34.3-65.1-112.7-37.2 64.4-7.1 12.4-7.2-12.4-37.2-64.4-65.1 112.7-19.7 34.3 19.7 34.2v0.1l65.1 112.7 37.2-64.4 7.2-12.4zm27.6 408l-34.8-60.2-34.8 60.2 34.8 60.3zm-173.6 147l15-26h0.1l69.8-121-69.8-121h-0.1l-15-26-84.8 147zm192.7-147l69.8 121 15 26 84.9-147-84.9-147-15 26zm-46.7-80.9l37.2 64.4 65-112.8 19.8-34.2-19.8-34.3-65-112.7-37.2 64.4-7.2 12.4-7.2-12.4-37.1-64.4-65.1 112.7-19.8 34.3 19.8 34.2v0.1l65.1 112.7 37.1-64.4 7.2-12.4zm27.6 408l-34.8-60.2-34.8 60.2 34.8 60.3zm-173.5 147l15-26 69.8-121-69.8-121-15-26-84.9 147zm192.7-147l69.8 121 15.1 26 84.8-147-84.8-147-15.1 26zm-46.7-80.9l37.2 64.4 65.1-112.8 19.8-34.2-19.8-34.3-65.1-112.7-37.2 64.4-7.2 12.4-7.1-12.4-37.2-64.4-65.1 112.7-19.8 34.3 19.8 34.2v0.1l65.1 112.7 37.2-64.4 7.1-12.4zm27.7 408l-34.8-60.2-34.8 60.2 34.8 60.3zm-173.6 147l15-26 69.9-121-69.9-121-15-26-84.9 147zm192.7-147l69.9 121 15 26 84.9-147-84.9-147-15 26zm-46.8-80.9l37.2 64.4 65.1-112.8 19.8-34.2-19.8-34.3-65.1-112.7-37.2 64.4-7.1 12.4-7.2-12.4-37.2-64.4-65.1 112.7-19.7 34.3 19.7 34.2v0.1l65.1 112.7 37.2-64.4 7.2-12.4zm27.6 408.1l-34.8-60.3-34.8 60.3 34.8 60.2zm-173.6 147l15-26h0.1l69.8-121-69.8-121h-0.1l-15-26-84.8 147zm192.7-147l69.8 121 15 26 84.9-147-84.9-147-15 26zm-46.7-80.9l37.2 64.4 65-112.8 19.8-34.2-19.8-34.3-65-112.7-37.2 64.4-7.2 12.4-7.2-12.4-37.1-64.4-65.1 112.7-19.8 34.3 19.8 34.2v0.1l65.1 112.7 37.1-64.4 7.2-12.4zm533.7-3610.5h-19.1l35.4 61.2 114.2 197.8-84.9 147-15-26-116.6-201.9-7.2-12.4-7.1 12.4-116.6 201.9-15.1 26-84.8-147 114.2-197.8 35.3-61.2h-19.1l-30.5 52.9-116.6 202-2.4 4.1 2.4 4.2 92 159.4-92 159.4-2.4 4.1 2.4 4.2 92 159.4-92 159.4-2.4 4.1 2.4 4.2 92 159.4-92 159.4-2.4 4.1 2.4 4.2 92 159.4-92 159.4-2.4 4.1 2.4 4.2 92 159.4-92 159.4-2.4 4.1 2.4 4.2 92 159.4-92 159.4-2.4 4.1 2.4 4.2 92 159.4-92 159.4-2.4 4.1 2.4 4.2 92 159.4-92 159.4-2.4 4.1 2.4 4.2 92 159.4-92 159.4-2.4 4.1 2.4 4.2 92 159.4-92 159.4-2.4 4.1 2.4 4.2 92 159.4-92 159.4-2.4 4.1 2.4 4.2 80 138.7h19.2l-82.5-142.9 84.8-147 15.1 26 69.8 121-69.8 121-12.7 21.9h19.2l7.8-13.6 65.1-112.7 37.2 64.4 7.1 12.4 7.2-12.4 37.2-64.4 65.1 112.7 7.8 13.6h19.1l-12.6-21.9-69.9-121 69.9-121 15-26 84.9 147-82.5 142.9h19.1l80.1-138.7 2.4-4.2-2.4-4.1-92-159.4 92-159.4 2.4-4.2-2.4-4.1-92-159.4 92-159.4 2.4-4.2-2.4-4.1-92-159.4 92-159.4 2.4-4.2-2.4-4.1-92-159.4 92-159.4 2.4-4.2-2.4-4.1-92-159.4 92-159.4 2.4-4.2-2.4-4.1-92-159.4 92-159.4 2.4-4.2-2.4-4.1-92-159.4 92-159.4 2.4-4.2-2.4-4.1-92-159.4 92-159.4 2.4-4.2-2.4-4.1-92-159.4 92-159.4 2.4-4.2-2.4-4.1-92-159.4 92-159.4 2.4-4.2-2.4-4.1-92-159.4 92-159.4 2.4-4.2-2.4-4.1-116.6-202zm-232 733.1l15-26v0.1l69.9-121-69.9-121-15-26-84.9 147zm192.7-147l69.9 121 15 26 84.9-147-84.9-147-15 26zm-46.8-81l37.2 64.4 65.1-112.7 19.8-34.3-19.8-34.2-109.4-189.6-109.5 189.5v0.1l-19.7 34.2 19.7 34.3 65.1 112.7 37.2-64.4 7.2-12.4zm27.6 408.1l-34.8-60.3-34.8 60.3 34.8 60.3zm-173.6 146.9l15-26 0.1 0.1 69.8-121-69.8-121h-0.1l-15-26-84.8 147zm192.7-147l69.8 121 15 26 84.9-147-84.9-147-15 26zm-46.7-81l37.2 64.4 65-112.7 19.8-34.3-19.8-34.2-65-112.8-37.2 64.4-7.2 12.4-7.2-12.4-37.1-64.4-65.1 112.7v0.1l-19.8 34.2 19.8 34.3 65.1 112.7 37.1-64.4 7.2-12.4zm27.6 408.1l-34.8-60.3-34.8 60.3 34.8 60.3zm-173.5 146.9l15-26v0.1l69.8-121-69.8-121-15-26-84.9 147zm192.7-147l69.8 121 15.1 26 84.8-147-84.8-147-15.1 26zm-46.7-81l37.2 64.4 65.1-112.7 19.7-34.3-19.7-34.2-65.1-112.8-37.2 64.4-7.2 12.4-7.1-12.4-37.2-64.4-65.1 112.7v0.1l-19.8 34.2 19.8 34.3 65.1 112.7 37.2-64.4 7.1-12.4zm27.7 408.1l-34.8-60.3-34.8 60.3 34.8 60.3zm-173.6 146.9l15-26v0.1l69.9-121-69.9-121-15-26-84.9 147zm192.7-147l69.9 121 15 26 84.9-147-84.9-147-15 26zm-46.8-81l37.2 64.4 65.1-112.7 19.8-34.3-19.8-34.2-65.1-112.8-37.2 64.4-7.1 12.4-7.2-12.4-37.2-64.4-65.1 112.7v0.1l-19.7 34.2 19.7 34.3 65.1 112.7 37.2-64.4 7.2-12.4zm27.6 408.1l-34.8-60.3-34.8 60.3 34.8 60.3zm-173.6 147l15-26 69.9-121-69.9-121-15-26-84.8 147zm192.6-147l69.9 121 15 26 84.9-147-84.9-147-15 26zm-46.7-81l37.1 64.4 65.1-112.7 19.8-34.3-19.8-34.2-65.1-112.8-37.1 64.4-7.2 12.4-7.2-12.4-37.2-64.4-65 112.7v0.1l-19.8 34.2 19.8 34.3 65 112.7 37.2-64.4 7.2-12.4zm27.6 408.1l-34.8-60.3-34.8 60.3 34.8 60.3zm-173.5 147l15-26 69.8-121-69.8-121-15-26-84.9 147zm192.7-147l69.8 121 15 26 84.9-147-84.9-147-15 26zm-46.7-81l37.2 64.4 65.1-112.7 19.7-34.3-19.7-34.2-65.1-112.8-37.2 64.4-7.2 12.4-7.1-12.4-37.2-64.4-65.1 112.7v0.1l-19.8 34.2 19.8 34.3 65.1 112.8 37.2-64.5 7.1-12.4zm27.7 408.1l-34.8-60.3-34.8 60.3 34.8 60.3zm-173.6 147l15-26 69.9-121-69.9-121-15-26-84.9 147zm192.7-147l69.9 121 15 26 84.8-147-84.8-147-15 26zm-46.8-81l37.2 64.4 65.1-112.7 19.8-34.3-19.8-34.2-65.1-112.8-37.2 64.5-7.1 12.3-7.2-12.4-37.2-64.4-65.1 112.7v0.1l-19.8 34.2 19.8 34.3 65.1 112.8 37.2-64.5 7.2-12.4zm27.6 408.1l-34.8-60.3-34.8 60.3 34.8 60.3zm-173.6 147l15-26 69.9-121-69.9-121-15-26-84.9 147zm192.7-147l69.9 121 15 26 84.9-147-84.9-147-15 26zm-46.8-81l37.2 64.4 65.1-112.7 19.8-34.3-19.8-34.2-65.1-112.8-37.2 64.5-7.1 12.4-7.2-12.5-37.2-64.4-65.1 112.7v0.1l-19.7 34.2 19.7 34.3 65.1 112.8 37.2-64.4 7.2-12.5zm27.6 408.1l-34.8-60.3-34.8 60.3 34.8 60.3zm-173.6 147l15.1-26 69.8-121-69.8-121-15.1-26-84.8 147zm192.7-147l69.8 121 15 26 84.9-147-84.9-147-15 26zm-46.7-81l37.2 64.4 65-112.7 19.8-34.3-19.8-34.2-65-112.8-37.2 64.5-7.2 12.4-7.2-12.5-37.1-64.4-65.1 112.7v0.1l-19.8 34.2 19.8 34.3 65.1 112.8 37.1-64.4 7.2-12.5zm27.6 408.1l-34.8-60.3-34.8 60.3 34.8 60.3zm-173.5 147l15-26 69.9-121-69.9-121-15-26-84.9 147zm192.7-147l69.8 121 15.1 26 84.8-147-84.8-147-15.1 26zm-46.7-81l37.2 64.4 65.1-112.7 19.8-34.3-19.8-34.2-65.1-112.8-37.2 64.5-7.2 12.4-7.1-12.5-37.2-64.4-65.1 112.7v0.1l-19.8 34.2 19.8 34.3 65.1 112.8 37.2-64.4 7.1-12.5zm27.7 408.1l-34.8-60.3-34.8 60.3 34.8 60.3zm-27.7-81l37.2 64.4 65.1-112.7 19.8-34.3-19.8-34.2-65.1-112.8-37.2 64.4-7.1 12.4-7.2-12.4-37.2-64.4-65.1 112.7v0.1l-19.7 34.2 19.7 34.3 65.1 112.7 37.2-64.4 7.2-12.4zm212.3 223.8h19.1l74.2-128.4 15 26 59.1 102.4h19.1l-63.9-110.7-19.8-34.3 19.8-34.2v-0.1l65.1-112.7 37.2 64.4 7.1 12.5 7.2-12.4 37.2-64.5 65.1 112.8 19.7 34.2-19.7 34.3-63.9 110.7h19.1l59.1-102.4 15-26 74.1 128.4h19.2l-83.7-145 92-159.4 2.4-4.1-2.4-4.2-92-159.4 92-159.4 2.4-4.1-2.4-4.2-92-159.4 92-159.4 2.4-4.1-2.4-4.2-92-159.4 92-159.4 2.4-4.1-2.4-4.2-92-159.4 92-159.4 2.4-4.1-2.4-4.2-92-159.4 92-159.4 2.4-4.1-2.4-4.2-92-159.4 92-159.4 2.4-4.1-2.4-4.2-92-159.4 92-159.4 2.4-4.1-2.4-4.2-92-159.4 92-159.4 2.4-4.1-2.4-4.2-92-159.4 92-159.4 2.4-4.1-2.4-4.2-92-159.4 92-159.4 2.4-4.1-2.4-4.2-116.6-201.9-116.6-202-7.2-12.4-7.1 12.4-116.6 202-116.6 201.9-2.4 4.2 2.4 4.1 92 159.4-92 159.4-2.4 4.2 2.4 4.1 92 159.4-92 159.4-2.4 4.2 2.4 4.1 92 159.4-92 159.4-2.4 4.2 2.4 4.1 92 159.4-92 159.4-2.4 4.2 2.4 4.1 92 159.4-92 159.4-2.4 4.2 2.4 4.1 92 159.4-92 159.4-2.4 4.2 2.4 4.1 92 159.4-92 159.4-2.4 4.2 2.4 4.1 92 159.4-92 159.4-2.4 4.2 2.4 4.1 92 159.4-92 159.4-2.4 4.2 2.4 4.1 92 159.4-92 159.4-2.4 4.2 2.4 4.1 92 159.4zm266.8-3252.4l-34.8-60.3-34.8 60.3 34.8 60.3zm-173.6 147l15.1-26 69.8-121-69.8-121-15.1-26-84.8 147zm192.7-147l69.8 121 15 26 84.9-147-84.9-147-15 26zm-46.7-81l37.2 64.4 65.1-112.7 19.7-34.2-19.7-34.3-109.5-189.6-109.4 189.6-19.8 34.3 19.8 34.2 65.1 112.8 37.1-64.4 7.2-12.5zm27.6 408.1l-34.8-60.3-34.8 60.3 34.8 60.3zm-173.5 147l15-26 69.9-121-69.9-121-15-26-84.9 147zm192.7-147l69.9 121 15 26 84.8-147-84.8-147-15 26zm-46.8-81l37.2 64.4 65.1-112.7 19.8-34.2-19.8-34.3-65.1-112.7-37.2 64.4-7.2 12.4-7.1-12.5-37.2-64.4-65.1 112.8-19.8 34.3 19.8 34.2 65.1 112.8 37.2-64.4 7.1-12.5zm27.7 408.1l-34.8-60.3-34.8 60.3 34.8 60.3zm-173.6 147l15-26 69.9-121-69.9-121-15-26-84.9 147zm192.7-147l69.9 121 15 26 84.9-147-84.9-147-15 26zm-46.8-81l37.2 64.4 65.1-112.7 19.8-34.2-19.8-34.3-65.1-112.7-37.2 64.4-7.1 12.4-7.2-12.5-37.2-64.4-65.1 112.8-19.7 34.3 19.7 34.2 65.1 112.8 37.2-64.4 7.2-12.5zm27.6 408.1l-34.8-60.3-34.8 60.3 34.8 60.3zm-173.6 147l15-26h0.1l69.8-121-69.8-121h-0.1l-15-26-84.8 147zm192.7-147l69.8 121 15 26 84.9-147-84.9-147-15 26zm-46.7-81l37.2 64.4 65-112.7 19.8-34.2-19.8-34.3-65-112.7-37.2 64.4-7.2 12.4-7.2-12.5-37.2-64.4-65 112.8-19.8 34.3 19.8 34.2 65 112.8 37.2-64.4 7.2-12.5zm27.6 408.1l-34.8-60.3-34.8 60.3 34.8 60.3zm-173.5 147l15-26 69.8-121-69.8-121-15-26-84.9 147zm192.7-147l69.8 121 15.1 26 84.8-147-84.8-147-15.1 26zm-46.7-81l37.2 64.4 65.1-112.7 19.7-34.2-19.7-34.3-65.1-112.7-37.2 64.4-7.2 12.4-7.1-12.5-37.2-64.4-65.1 112.8-19.8 34.3 19.8 34.2 65.1 112.8 37.2-64.4 7.1-12.5zm27.7 408.1l-34.8-60.3-34.8 60.3 34.8 60.3zm-173.6 147l15-26 69.9-121-69.9-121-15-26-84.9 147zm192.7-147l69.9 121 15 26 84.8-147-84.8-147-15 26zm-46.8-81l37.2 64.4 65.1-112.7 19.8-34.2-19.8-34.3-65.1-112.7-37.2 64.4-7.1 12.4-7.2-12.5-37.2-64.4-65.1 112.8-19.8 34.3 19.8 34.2 65.1 112.8 37.2-64.4 7.2-12.5zm27.6 408.1l-34.8-60.3-34.8 60.3 34.8 60.3zm-173.6 147l15-26 69.9-121-69.9-121-15-26-84.8 147zm192.6-147l69.9 121 15 26 84.9-147-84.9-147-15 26zm-46.7-81l37.1 64.4 65.1-112.7 19.8-34.2-19.8-34.3-65.1-112.7-37.1 64.4-7.2 12.4-7.2-12.5-37.2-64.4-65 112.8-19.8 34.3 19.8 34.2 65 112.8 37.2-64.4 7.2-12.5zm27.6 408.1l-34.8-60.3-34.8 60.3 34.8 60.3zm-173.5 147l15-26 69.8-121-69.8-121-15-26-84.9 147zm192.7-147l69.8 121 15 26 84.9-147-84.9-147-15 26zm-46.7-81l37.2 64.4 65.1-112.7 19.7-34.2-19.7-34.3-65.1-112.7-37.2 64.4-7.2 12.4-7.2-12.5-37.1-64.4-65.1 112.8-19.8 34.3 19.8 34.2 65.1 112.8 37.1-64.4 7.2-12.5zm27.7 408.1l-34.9-60.3-34.7 60.3 34.7 60.3zm-173.5 147l15-26 69.9-121-69.9-121-15-26-84.9 147zm192.7-147l69.9 121 15 26 84.8-147-84.8-147-15 26zm-46.8-81l37.2 64.5 65.1-112.8 19.8-34.2-19.8-34.3-65.1-112.7-37.2 64.4-7.1 12.4-7.2-12.5-37.2-64.4-65.1 112.8-19.8 34.3 19.8 34.2v0.1l65.1 112.7 37.2-64.4 7.2-12.4zm27.6 408l-34.8-60.3-34.8 60.3 34.8 60.3zm-173.6 147l15-26 69.9-121-69.9-121-15-26-84.9 147zm192.7-147l69.9 121 15 26 84.9-147-84.9-147-15 26zm-46.8-81l37.2 64.5 65.1-112.8 19.8-34.2-19.8-34.3-65.1-112.7-37.2 64.4-7.1 12.4-7.2-12.5-37.2-64.4-65.1 112.8-19.7 34.3 19.7 34.2v0.1l65.1 112.7 37.2-64.4 7.2-12.4zm533.7-3610.6h-19.1l35.3 61.3 114.2 197.8-84.8 147-15-26-116.6-202-7.2-12.4-7.2 12.5-116.6 201.9-15 26-84.8-147 114.2-197.8v-0.1l35.3-61.2h-19.1l-30.6 53-116.6 201.9-2.4 4.2 2.4 4.1 92.1 159.4-92.1 159.4-2.4 4.2 2.4 4.1 92.1 159.4-92.1 159.4-2.4 4.2 2.4 4.1 92.1 159.4-92.1 159.4-2.4 4.2 2.4 4.1 92.1 159.4-92.1 159.4-2.4 4.2 2.4 4.1 92.1 159.5-92.1 159.4-2.4 4.1 2.4 4.2 92.1 159.4-92.1 159.4-2.4 4.1 2.4 4.2 92.1 159.4-92.1 159.4-2.4 4.1 2.4 4.2 92.1 159.4-92.1 159.4-2.4 4.1 2.4 4.2 92.1 159.4-92.1 159.4-2.4 4.1 2.4 4.2 92.1 159.4-92.1 159.4-2.4 4.1 2.4 4.2 92.1 159.4-92.1 159.4-2.4 4.1 2.4 4.2 80.1 138.6h19.1l-82.4-142.8 84.8-147 15 26 69.9 121-69.9 121-12.6 21.8h19.1l7.9-13.5 65-112.8 37.2 64.4 7.2 12.5 7.2-12.4 37.1-64.4 65.1 112.7 7.8 13.5h19.2l-12.6-21.8-69.9-121 69.9-121 15-26 84.8 147-82.4 142.8h19.1l80.1-138.6 2.4-4.2-2.4-4.1-92.1-159.4 92.1-159.4 2.4-4.2-2.4-4.1-92.1-159.4 92.1-159.4 2.4-4.2-2.4-4.1-92.1-159.4 92.1-159.4 2.4-4.2-2.4-4.1-92.1-159.4 92.1-159.4 2.4-4.2-2.4-4.1-92.1-159.4 92.1-159.4 2.4-4.2-2.4-4.1-92.1-159.4 92.1-159.4 2.4-4.2-2.4-4.1-92.1-159.4 92.1-159.5 2.4-4.1-2.4-4.2-92.1-159.4 92.1-159.4 2.4-4.1-2.4-4.2-92.1-159.4 92.1-159.4 2.4-4.1-2.4-4.2-92.1-159.4 92.1-159.4 2.4-4.1-2.4-4.2-92.1-159.4 92.1-159.4 2.4-4.1-2.4-4.2-116.6-201.9zm-232 733.1l15-26 69.9-121-69.9-121-15-26-84.9 147zm192.7-147l69.9 121 15 26 84.8-147-84.8-147-15 26zm-46.8-80.9l37.2 64.4 65.1-112.7 19.8-34.3-19.8-34.3-109.5-189.5-109.4 189.5-19.8 34.3 19.8 34.3 65.1 112.7 37.2-64.4 7.2-12.4zm27.6 408.1l-34.8-60.3-34.8 60.3 34.8 60.2zm-173.6 147l15-26 69.9-121-69.9-121-15-26-84.8 147zm192.6-147l69.9 121 15 26 84.9-147-84.9-147-15 26zm-46.8-80.9l37.2 64.4 65.1-112.7 19.8-34.3-19.8-34.3-65.1-112.7-37.2 64.4-7.1 12.4-7.2-12.4-37.2-64.4-65.1 112.7-19.7 34.3 19.7 34.3 65.1 112.7 37.2-64.4 7.2-12.4zm27.6 408.1l-34.8-60.3-34.8 60.3 34.8 60.2zm-173.5 147l15-26 69.8-121-69.8-121-15-26-84.9 147zm192.7-147l69.8 121 15 26 84.9-147-84.9-147-15 26zm-46.7-80.9l37.2 64.4 65.1-112.7 19.7-34.3-19.7-34.3-65.1-112.7-37.2 64.4-7.2 12.4-7.1-12.4-37.2-64.4-65.1 112.7-19.8 34.3 19.8 34.3 65.1 112.7 37.2-64.4 7.1-12.4zm27.6 408.1l-34.7-60.3-34.9 60.3 34.9 60.2zm-173.6 147l15-26 69.9-121-69.9-121-15-26-84.9 147zm192.7-147l69.9 121 15 26 84.8-147-84.8-146.9-15 25.9zm-46.8-80.9l37.2 64.4 65.1-112.7 19.8-34.3-19.8-34.3-65.1-112.7-37.2 64.4-7.1 12.4-7.2-12.4-37.2-64.4-65.1 112.7-19.8 34.3 19.8 34.3 65.1 112.7 37.2-64.4 7.2-12.4zm27.6 408.1l-34.8-60.3-34.8 60.3 34.8 60.2zm-173.6 147l15-26 69.9-121-69.9-121-15-26-84.8 147zm192.6-147l69.9 121 15 26 84.9-147-84.9-147-15 26zm-46.8-80.9l37.2 64.4 65.1-112.7 19.8-34.3-19.8-34.3-65.1-112.7-37.2 64.4-7.1 12.4-7.2-12.4-37.2-64.4-65 112.7-19.8 34.3 19.8 34.3 65 112.7 37.2-64.4 7.2-12.4zm27.6 408.1l-34.8-60.3-34.8 60.3 34.8 60.2zm-173.5 147l15-26 69.8-121-69.8-121-15-26-84.9 147zm192.7-147l69.8 121 15 26 84.9-147-84.9-146.9-15 26zm-46.7-81l37.2 64.4 65.1-112.7 19.7-34.3-19.7-34.3-65.1-112.7-37.2 64.4-7.2 12.4-7.1-12.4-37.2-64.4-65.1 112.7-19.8 34.3 19.8 34.3 65.1 112.7 37.2-64.4 7.1-12.4zm27.7 408.1l-34.8-60.3-34.8 60.3 34.8 60.2zm-173.6 147l15-26 69.9-121-69.9-121-15-26-84.9 147zm192.7-146.9l69.9 120.9 15 26 84.8-146.9-84.8-147-15 26zm-46.8-81l37.2 64.4 65.1-112.7 19.8-34.3-19.8-34.3-65.1-112.7-37.2 64.4-7.1 12.4-7.2-12.4-37.2-64.4-65.1 112.7-19.8 34.3 19.8 34.3 65.1 112.7 37.2-64.4 7.2-12.4zm27.6 408.1l-34.8-60.3-34.8 60.3 34.8 60.2zm-173.6 147l15-26 69.9-121-69.9-121-15-26-84.8 147zm192.6-147l69.9 121 15 26 84.9-147-84.9-146.9-15 26zm-46.7-81l37.1 64.4 65.1-112.7 19.8-34.3-19.8-34.3-65.1-112.7-37.1 64.4-7.2 12.4-7.2-12.4-37.2-64.4-65 112.7-19.8 34.3 19.8 34.3 65 112.7 37.2-64.4 7.2-12.4zm27.6 408.1l-34.8-60.3-34.8 60.3 34.8 60.2zm-173.5 147l15-26 69.8-121-69.8-121-15-26-84.9 147zm192.7-146.9l69.8 120.9 15 26 84.9-146.9-84.9-147-15 26zm-46.7-81l37.2 64.4 65.1-112.7 19.7-34.3-19.7-34.3-65.1-112.7-37.2 64.4-7.2 12.4-7.1-12.4-37.2-64.4-65.1 112.7-19.8 34.3 19.8 34.3 65.1 112.7 37.2-64.4 7.1-12.4zm27.7 408.1l-34.8-60.3-34.8 60.3 34.8 60.2zm-173.6 147l15-26 69.9-121-69.9-121-15-25.9-84.9 146.9zm192.7-146.9l69.9 120.9 15 26 84.8-146.9-84.8-147-15 26zm-46.8-81l37.2 64.4 65.1-112.7 19.8-34.3-19.8-34.3-65.1-112.7-37.2 64.4-7.1 12.4-7.2-12.4-37.2-64.4-65.1 112.7-19.8 34.3 19.8 34.3 65.1 112.7 37.2-64.4 7.2-12.4zm27.6 408.1l-34.8-60.3-34.8 60.3 34.8 60.2zm-27.6-80.9l37.2 64.4 65-112.7 19.8-34.3-19.8-34.3-65-112.7-37.2 64.4-7.2 12.4-7.2-12.4-37.2-64.4-65 112.7-19.8 34.3 19.8 34.3 65 112.7 37.2-64.4 7.2-12.4zm212.3 223.8h19.1l74.2-128.4 15 26 59.1 102.4h19.1l-63.9-110.7-19.8-34.3 19.8-34.2v-0.1l65.1-112.7 37.2 64.4 7.2 12.4 7.1-12.4 37.2-64.4 65.1 112.8 19.8 34.2-19.8 34.3-63.9 110.7h19.1l59.1-102.4 15-26 74.2 128.4h19.1l-83.7-145 92-159.4 2.4-4.1-2.4-4.2-92-159.4 92-159.4 2.4-4.1-2.4-4.2-92-159.4 92-159.4 2.4-4.1-2.4-4.2-92-159.4 92-159.4 2.4-4.1-2.4-4.2-92-159.4 92-159.4 2.4-4.1-2.4-4.2-92-159.4 92-159.4 2.4-4.1-2.4-4.2-92-159.4 92-159.4 2.4-4.1-2.4-4.2-92-159.4 92-159.4 2.4-4.1-2.4-4.2-92-159.4 92-159.4 2.4-4.1-2.4-4.2-92-159.4 92-159.4 2.4-4.1-2.4-4.2-92-159.4 92-159.4 2.4-4.1-2.4-4.2-116.6-202-116.6-201.9-7.1-12.4-7.2 12.4-116.6 201.9-116.6 202-2.4 4.2 2.4 4.1 92 159.4-92 159.4-2.4 4.2 2.4 4.1 92 159.4-92 159.4-2.4 4.2 2.4 4.1 92 159.4-92 159.4-2.4 4.2 2.4 4.1 92 159.4-92 159.4-2.4 4.2 2.4 4.1 92 159.4-92 159.4-2.4 4.2 2.4 4.1 92 159.4-92 159.4-2.4 4.2 2.4 4.1 92 159.4-92 159.4-2.4 4.2 2.4 4.1 92 159.4-92 159.4-2.4 4.2 2.4 4.1 92 159.4-92 159.4-2.4 4.2 2.4 4.1 92 159.4-92 159.4-2.4 4.2 2.4 4.1 92 159.4zm266.8-3252.4l-34.8-60.3-34.8 60.3 34.8 60.3zm-173.5 146.9l15-26v0.1l69.9-121-69.9-121-15-26-84.9 147zm192.7-147l69.9 121 15 26 84.8-147-84.8-147-15 26zm-46.8-81l37.2 64.4 65.1-112.7 19.8-34.3-19.8-34.2-109.5-189.6-109.4 189.5v0.1l-19.8 34.2 19.8 34.3 65.1 112.7 37.2-64.4 7.1-12.4zm27.7 408.1l-34.8-60.3-34.8 60.3 34.8 60.3zm-173.6 146.9l15-26v0.1l69.9-121-69.9-121-15-26-84.9 147zm192.7-147l69.9 121 15 26 84.9-147-84.9-147-15 26zm-46.8-81l37.2 64.4 65.1-112.7 19.8-34.3-19.8-34.2-65.1-112.8-37.2 64.4-7.1 12.4-7.2-12.4-37.2-64.4-65.1 112.7v0.1l-19.7 34.2 19.7 34.3 65.1 112.7 37.2-64.4 7.2-12.4zm27.6 408.1l-34.8-60.3-34.8 60.3 34.8 60.3zm-173.6 146.9l15-26 0.1 0.1 69.8-121-69.8-121h-0.1l-15-26-84.8 147zm192.7-147l69.8 121 15 26 84.9-147-84.9-147-15 26zm-46.7-81l37.2 64.4 65-112.7 19.8-34.3-19.8-34.2-65-112.8-37.2 64.4-7.2 12.4-7.2-12.4-37.1-64.4-65.1 112.7v0.1l-19.8 34.2 19.8 34.3 65.1 112.7 37.1-64.4 7.2-12.4zm27.6 408.1l-34.8-60.3-34.8 60.3 34.8 60.3zm-173.5 147l15-26.1v0.1l69.9-121-69.9-121-15-26-84.9 147zm192.7-147l69.9 121 15 26 84.8-147-84.8-147-15 26zm-46.8-81l37.2 64.4 65.1-112.7 19.8-34.3-19.8-34.2-65.1-112.8-37.2 64.4-7.2 12.4-7.1-12.4-37.2-64.4-65.1 112.7v0.1l-19.8 34.2 19.8 34.3 65.1 112.7 37.2-64.4 7.1-12.4zm27.7 408.1l-34.8-60.3-34.8 60.3 34.8 60.3zm-173.6 146.9l15-26v0.1l69.9-121-69.9-121-15-26-84.9 147zm192.7-147l69.9 121 15 26 84.9-147-84.9-147-15 26zm-46.8-81l37.2 64.4 65.1-112.7 19.8-34.3-19.8-34.2-65.1-112.8-37.2 64.4-7.1 12.4-7.2-12.4-37.2-64.4-65.1 112.7v0.1l-19.7 34.2 19.7 34.3 65.1 112.7 37.2-64.4 7.2-12.4zm27.6 408.1l-34.8-60.3-34.8 60.3 34.8 60.3zm-173.6 146.9l15.1-26v0.1l69.8-121-69.8-121-15.1-26-84.8 147zm192.7-147l69.8 121 15 26 84.9-147-84.9-147-15 26zm-46.7-81l37.2 64.4 65-112.7 19.8-34.3-19.8-34.2-65-112.8-37.2 64.4-7.2 12.4-7.2-12.4-37.1-64.4-65.1 112.7v0.1l-19.8 34.2 19.8 34.3 65.1 112.8 37.1-64.5 7.2-12.4zm27.6 408.1l-34.8-60.3-34.8 60.3 34.8 60.3zm-173.5 147l15-26 69.9-121-69.9-121-15-26-84.9 147zm192.7-147l69.9 121 15 26 84.8-147-84.8-147-15 26zm-46.8-81l37.2 64.4 65.1-112.7 19.8-34.3-19.8-34.2-65.1-112.8-37.2 64.4-7.2 12.4-7.1-12.4-37.2-64.4-65.1 112.7v0.1l-19.8 34.2 19.8 34.3 65.1 112.7 37.2-64.4 7.1-12.4zm27.7 408.1l-34.8-60.3-34.8 60.3 34.8 60.3zm-173.6 147l15-26 69.9-121-69.9-121-15-26-84.9 147zm192.7-147l69.9 121 15 26 84.9-147-84.9-147-15 26zm-46.8-81l37.2 64.4 65.1-112.7 19.8-34.3-19.8-34.2-65.1-112.8-37.2 64.4-7.1 12.4-7.2-12.4-37.2-64.4-65.1 112.7v0.1l-19.7 34.2 19.7 34.3 65.1 112.8 37.2-64.5 7.2-12.4zm27.6 408.1l-34.8-60.3-34.8 60.3 34.8 60.3zm-173.6 147l15.1-26 69.8-121-69.8-121-15.1-26-84.8 147zm192.7-147l69.8 121 15 26 84.9-147-84.9-147-15 26zm-46.7-81l37.2 64.4 65-112.7 19.8-34.3-19.8-34.2-65-112.8-37.2 64.5-7.2 12.4-7.2-12.5-37.1-64.4-65.1 112.7v0.1l-19.8 34.2 19.8 34.3 65.1 112.8 37.1-64.5 7.2-12.4zm27.6 408.1l-34.8-60.3-34.8 60.3 34.8 60.3zm-173.5 147l15-26 69.9-121-69.9-121-15-26-84.9 147zm192.7-147l69.9 121 15 26 84.8-147-84.8-147-15 26zm-46.8-81l37.2 64.4 65.1-112.7 19.8-34.3-19.8-34.2-65.1-112.8-37.2 64.5-7.2 12.4-7.1-12.5-37.2-64.4-65.1 112.7v0.1l-19.8 34.2 19.8 34.3 65.1 112.8 37.2-64.4 7.1-12.5zm533.8-3610.5h-19.2l35.4 61.3 114.2 197.8-84.9 147-15-26-116.6-202-7.1-12.4-7.2 12.4-116.6 202-15 26-84.9-147 114.2-197.8v-0.1l35.4-61.2h-19.1l-30.6 53v-0.1l-116.6 202-2.4 4.2 2.4 4.1 92 159.4-92 159.4-2.4 4.2 2.4 4.1 92 159.4-92 159.4-2.4 4.2 2.4 4.1 92 159.4-92 159.4-2.4 4.2 2.4 4.1 92 159.4-92 159.4-2.4 4.2 2.4 4.1 92 159.4-92 159.4-2.4 4.2 2.4 4.1 92 159.4-92 159.4-2.4 4.2 2.4 4.1 92 159.4-92 159.4-2.4 4.2 2.4 4.1 92 159.4-92 159.4-2.4 4.2 2.4 4.1 92 159.4-92 159.4-2.4 4.2 2.4 4.1 92 159.4-92 159.4-2.4 4.2 2.4 4.1 92 159.4-92 159.4-2.4 4.2 2.4 4.1 80.1 138.7h19.1l-82.5-142.8 84.9-147 15 26 69.9 121-69.9 121-12.6 21.8h19.1l7.8-13.5v-0.1l65.1-112.7 37.2 64.4 7.2 12.5 7.1-12.4 37.2-64.5 65.1 112.8 7.8 13.5h19.1l-12.6-21.8-69.8-121 69.8-121 15-26 84.9 147-82.5 142.8h19.2l80-138.7 2.4-4.1-2.4-4.2-92-159.4 92-159.4 2.4-4.1-2.4-4.2-92-159.4 92-159.4 2.4-4.1-2.4-4.2-92-159.4 92-159.4 2.4-4.1-2.4-4.2-92-159.4 92-159.4 2.4-4.1-2.4-4.2-92-159.4 92-159.4 2.4-4.1-2.4-4.2-92-159.4 92-159.4 2.4-4.1-2.4-4.2-92-159.4 92-159.4 2.4-4.1-2.4-4.2-92-159.4 92-159.4 2.4-4.1-2.4-4.2-92-159.4 92-159.4 2.4-4.1-2.4-4.2-92-159.4 92-159.4 2.4-4.1-2.4-4.2-92-159.4 92-159.4 2.4-4.1-2.4-4.2-116.6-202zm-232 733.2l15.1-26 69.8-121-69.8-121-15.1-26-84.8 147zm192.7-147l69.8 121 15 26 84.9-147-84.9-147-15 26zm-46.7-80.9l37.2 64.4 65.1-112.8 19.7-34.2-19.7-34.3-109.5-189.6-109.4 189.6-19.8 34.3 19.8 34.2v0.1l65.1 112.7 37.1-64.4 7.2-12.4zm27.6 408l-34.8-60.2-34.8 60.2 34.8 60.3zm-173.5 147l15-26 69.9-121-69.9-121-15-26-84.9 147zm192.7-147l69.9 121 15 26 84.8-147-84.8-147-15 26zm-46.8-80.9l37.2 64.4 65.1-112.8 19.8-34.2-19.8-34.3-65.1-112.7-37.2 64.4-7.2 12.4-7.1-12.4-37.2-64.5-65.1 112.8-19.8 34.3 19.8 34.2v0.1l65.1 112.7 37.2-64.4 7.1-12.4zm27.7 408l-34.8-60.2-34.8 60.2 34.8 60.3zm-173.6 147l15-26 69.9-121-69.9-121-15-26-84.9 147zm192.7-147l69.9 121 15 26 84.9-147-84.9-147-15 26zm-46.8-80.9l37.2 64.4 65.1-112.8 19.8-34.2-19.8-34.3-65.1-112.7-37.2 64.4-7.1 12.4-7.2-12.4-37.2-64.5-65.1 112.8-19.7 34.3 19.7 34.2v0.1l65.1 112.7 37.2-64.4 7.2-12.4zm27.6 408l-34.8-60.2-34.8 60.2 34.8 60.3zm-173.6 147l15-26h0.1l69.8-121-69.8-121h-0.1l-15-26-84.8 147zm192.7-147l69.8 121 15 26 84.9-147-84.9-147-15 26zm-46.7-80.9l37.2 64.4 65-112.8 19.8-34.2-19.8-34.3-65-112.7-37.2 64.4-7.2 12.4-7.2-12.4-37.2-64.5-65 112.8-19.8 34.3 19.8 34.2v0.1l65 112.7 37.2-64.4 7.2-12.4zm27.6 408l-34.8-60.2-34.8 60.2 34.8 60.3zm-173.5 147l15-26 69.8-121-69.8-121-15-26-84.9 147zm192.7-147l69.8 121 15.1 26 84.8-147-84.8-147-15.1 26zm-46.7-80.9l37.2 64.4 65.1-112.8 19.7-34.2-19.7-34.3-65.1-112.7-37.2 64.4-7.2 12.4-7.1-12.4-37.2-64.5-65.1 112.8-19.8 34.3 19.8 34.2v0.1l65.1 112.7 37.2-64.4 7.1-12.4zm27.7 408l-34.8-60.2-34.8 60.2 34.8 60.3zm-173.6 147l15-26 69.9-121-69.9-121-15-26-84.9 147zm192.7-147l69.9 121 15 26 84.8-147-84.8-147-15 26zm-46.8-80.9l37.2 64.4 65.1-112.8 19.8-34.2-19.8-34.3-65.1-112.7-37.2 64.4-7.1 12.4-7.2-12.4-37.2-64.4-65.1 112.7-19.8 34.3 19.8 34.2v0.1l65.1 112.7 37.2-64.4 7.2-12.4zm27.6 408l-34.8-60.2-34.8 60.2 34.8 60.3zm-173.6 147l15-26 69.9-121-69.9-121-15-26-84.8 147zm192.6-147l69.9 121 15 26 84.9-147-84.9-147-15 26zm-46.7-80.9l37.1 64.4 65.1-112.8 19.8-34.2-19.8-34.3-65.1-112.7-37.1 64.4-7.2 12.4-7.2-12.4-37.2-64.4-65 112.7-19.8 34.3 19.8 34.2v0.1l65 112.7 37.2-64.4 7.2-12.4zm27.6 408l-34.8-60.2-34.8 60.2 34.8 60.3zm-173.5 147l15-26 69.8-121-69.8-121-15-26-84.9 147zm192.7-147l69.8 121 15 26 84.9-147-84.9-147-15 26zm-46.7-80.9l37.2 64.4 65.1-112.8 19.7-34.2-19.7-34.3-65.1-112.7-37.2 64.4-7.2 12.4-7.2-12.4-37.1-64.4-65.1 112.7-19.8 34.3 19.8 34.2v0.1l65.1 112.7 37.1-64.4 7.2-12.4zm27.6 408l-34.8-60.2-34.7 60.2 34.7 60.3zm-173.5 147l15-26 69.9-121-69.9-121-15-26-84.9 147zm192.7-147l69.9 121 15 26 84.8-147-84.8-147-15 26zm-46.8-80.9l37.2 64.4 65.1-112.8 19.8-34.2-19.8-34.3-65.1-112.7-37.2 64.4-7.1 12.4-7.2-12.4-37.2-64.4-65.1 112.7-19.8 34.3 19.8 34.2v0.1l65.1 112.7 37.2-64.4 7.2-12.4zm27.6 408l-34.8-60.2-34.8 60.2 34.8 60.3zm-173.6 147l15-26 69.9-121-69.9-121-15-26-84.9 147zm192.7-147l69.9 121 15 26 84.9-147-84.9-147-15 26zm-46.8-80.9l37.2 64.4 65.1-112.8 19.8-34.2-19.8-34.3-65.1-112.7-37.2 64.4-7.1 12.4-7.2-12.4-37.2-64.4-65.1 112.7-19.7 34.3 19.7 34.2v0.1l65.1 112.7 37.2-64.4 7.2-12.4zm27.6 408l-34.8-60.2-34.8 60.2 34.8 60.3zm-27.6-81l37.2 64.5 65.1-112.8 19.7-34.2-19.7-34.3-65.1-112.7-37.2 64.4-7.2 12.4-7.2-12.4-37.1-64.5-65.1 112.8-19.8 34.3 19.8 34.2v0.1l65.1 112.7 37.1-64.4 7.2-12.4zm212.3 223.8h19.1l74.2-128.5 15 26 59.1 102.5h19.1l-63.9-110.7v-0.1l-19.7-34.2 19.7-34.3 65.1-112.7 37.2 64.4 7.2 12.4 7.1-12.4 37.2-64.4 65.1 112.7 19.8 34.3-19.8 34.2-63.9 110.8h19.1l59.1-102.5 15-26 74.2 128.5h19.1l-83.7-145 92-159.4 2.4-4.2-2.4-4.1-92-159.4 92-159.4 2.4-4.2-2.4-4.1-92-159.4 92-159.4 2.4-4.2-2.4-4.1-92-159.4 92-159.4 2.4-4.2-2.4-4.1-92-159.4 92-159.4 2.4-4.2-2.4-4.1-92-159.4 92-159.4 2.4-4.2-2.4-4.1-92-159.4 92-159.4 2.4-4.2-2.4-4.1-92-159.4 92-159.4 2.4-4.2-2.4-4.1-92-159.4 92-159.4 2.4-4.2-2.4-4.1-92-159.4 92-159.4 2.4-4.2-2.4-4.1-92-159.4 92-159.4 2.4-4.2-2.4-4.1-116.6-202-116.6-201.9-7.1-12.4-7.2 12.4-116.6 201.9-116.6 202-2.4 4.1 2.4 4.2 92 159.4-92 159.4-2.4 4.1 2.4 4.2 92 159.4-92 159.4-2.4 4.1 2.4 4.2 92 159.4-92 159.4-2.4 4.1 2.4 4.2 92 159.4-92 159.4-2.4 4.1 2.4 4.2 92 159.4-92 159.4-2.4 4.1 2.4 4.2 92 159.4-92 159.4-2.4 4.1 2.4 4.2 92 159.4-92 159.4-2.4 4.1 2.4 4.2 92 159.4-92 159.4-2.4 4.1 2.4 4.2 92 159.4-92 159.4-2.4 4.1 2.4 4.2 92 159.4-92 159.4-2.4 4.1 2.4 4.2 92 159.4zm266.9-3252.4l-34.8-60.3-34.8 60.3 34.8 60.2zm-173.6 147l15-26 69.9-121-69.9-121-15-26-84.9 147zm192.7-147l69.9 121 15 26 84.8-147-84.8-147-15 26zm-46.8-80.9l37.2 64.4 65.1-112.7 19.8-34.3-19.8-34.3-109.5-189.5-109.4 189.5-19.8 34.3 19.8 34.3 65.1 112.7 37.2-64.4 7.2-12.4zm27.6 408.1l-34.8-60.3-34.8 60.3 34.8 60.2zm-173.6 147l15-26 69.9-121-69.9-121-15-26-84.9 147zm192.7-147l69.9 121 15 26 84.9-147-84.9-146.9-15 25.9zm-46.8-80.9l37.2 64.4 65.1-112.7 19.8-34.3-19.8-34.3-65.1-112.7-37.2 64.4-7.1 12.4-7.2-12.4-37.2-64.4-65.1 112.7-19.7 34.3 19.7 34.3 65.1 112.7 37.2-64.4 7.2-12.4zm27.6 408.1l-34.8-60.3-34.8 60.3 34.8 60.2zm-173.6 147l15.1-26 69.8-121-69.8-121-15.1-26-84.8 147zm192.7-147l69.8 121 15 26 84.9-147-84.9-147-15 26zm-46.7-80.9l37.2 64.4 65-112.7 19.8-34.3-19.8-34.3-65-112.7-37.2 64.4-7.2 12.4-7.2-12.4-37.1-64.4-65.1 112.7-19.8 34.3 19.8 34.3 65.1 112.7 37.1-64.4 7.2-12.4zm27.6 408.1l-34.8-60.3-34.8 60.3 34.8 60.2zm-173.5 147l15-26 69.9-121-69.9-121-15-26-84.9 147zm192.7-147l69.9 121 15 26 84.8-147-84.8-146.9-15 26zm-46.8-81l37.2 64.4 65.1-112.7 19.8-34.3-19.8-34.3-65.1-112.7-37.2 64.4-7.2 12.4-7.1-12.4-37.2-64.4-65.1 112.7-19.8 34.3 19.8 34.3 65.1 112.7 37.2-64.4 7.1-12.4zm27.7 408.1l-34.8-60.3-34.8 60.3 34.8 60.2zm-173.6 147l15-26 69.9-121-69.9-121-15-26-84.9 147zm192.7-147l69.9 121 15 26 84.9-147-84.9-147-15 26.1zm-46.8-81l37.2 64.4 65.1-112.7 19.8-34.3-19.8-34.3-65.1-112.7-37.2 64.4-7.1 12.4-7.2-12.4-37.2-64.4-65.1 112.7-19.7 34.3 19.7 34.3 65.1 112.7 37.2-64.4 7.2-12.4zm27.6 408.1l-34.8-60.3-34.8 60.3 34.8 60.2zm-173.6 147l15-26h0.1l69.8-121-69.8-121h-0.1l-15-26-84.8 147zm192.7-147l69.8 121 15 26 84.9-147-84.9-147-15 26.1zm-46.7-81l37.2 64.4 65-112.7 19.8-34.3-19.8-34.3-65-112.7-37.2 64.4-7.2 12.4-7.2-12.4-37.2-64.4-65 112.7-19.8 34.3 19.8 34.3 65 112.7 37.2-64.4 7.2-12.4zm27.6 408.1l-34.8-60.3-34.8 60.3 34.8 60.2zm-173.5 147l15-26 69.8-121-69.8-121-15-26-84.9 147zm192.7-147l69.8 121 15.1 26 84.8-147-84.8-146.9-15.1 26zm-46.7-81l37.2 64.4 65.1-112.7 19.7-34.3-19.7-34.3-65.1-112.7-37.2 64.4-7.2 12.4-7.1-12.4-37.2-64.4-65.1 112.7-19.8 34.3 19.8 34.3 65.1 112.7 37.2-64.4 7.1-12.4zm27.7 408.1l-34.8-60.3-34.8 60.3 34.8 60.2zm-173.6 147l15-26 69.9-121-69.9-121-15-26-84.9 147zm192.7-147l69.9 121 15 26 84.8-147-84.8-146.9-15 26zm-46.8-81l37.2 64.4 65.1-112.7 19.8-34.3-19.8-34.3-65.1-112.7-37.2 64.4-7.1 12.4-7.2-12.4-37.2-64.4-65.1 112.7-19.8 34.3 19.8 34.3 65.1 112.7 37.2-64.4 7.2-12.4zm27.6 408.1l-34.8-60.3-34.8 60.3 34.8 60.2zm-173.6 147l15-26 69.9-121-69.9-121-15-26-84.8 147zm192.6-146.9l69.9 120.9 15 26 84.9-146.9-84.9-147-15 26zm-46.7-81l37.1 64.4 65.1-112.7 19.8-34.3-19.8-34.3-65.1-112.7-37.1 64.4-7.2 12.4-7.2-12.4-37.2-64.4-65 112.7-19.8 34.3 19.8 34.3 65 112.7 37.2-64.4 7.2-12.4zm27.6 408.1l-34.8-60.3-34.8 60.3 34.8 60.2zm-173.5 147l15-26 69.8-121-69.8-121-15-26-84.9 147zm192.7-146.9l69.8 120.9 15 26 84.9-146.9-84.9-147-15 26zm-46.7-81l37.2 64.4 65.1-112.7 19.7-34.3-19.7-34.3-65.1-112.7-37.2 64.4-7.2 12.4-7.2-12.4-37.1-64.4-65.1 112.7-19.8 34.3 19.8 34.3 65.1 112.7 37.1-64.4 7.2-12.4zm533.7-3610.5h-19.1l35.4 61.2 114.2 197.8-84.9 147-15-26-116.6-201.9-7.2-12.4-7.1 12.4-116.6 201.9-15 26-84.9-147 114.2-197.8 35.3-61.2h-19l-30.6 52.9-116.6 202-2.4 4.1 2.4 4.2 92 159.4-92 159.4-2.4 4.1 2.4 4.2 92 159.4-92 159.4-2.4 4.1 2.4 4.2 92 159.4-92 159.4-2.4 4.1 2.4 4.2 92 159.4-92 159.4-2.4 4.1 2.4 4.2 92 159.4-92 159.4-2.4 4.1 2.4 4.2 92 159.4-92 159.4-2.4 4.2 2.4 4.1 92 159.4-92 159.4-2.4 4.2 2.4 4.1 92 159.4-92 159.4-2.4 4.2 2.4 4.1 92 159.4-92 159.4-2.4 4.2 2.4 4.1 92 159.4-92 159.4-2.4 4.2 2.4 4.1 92 159.4-92 159.4-2.4 4.2 2.4 4.1 80 138.7h19.2l-82.5-142.8 84.9-147 15 26 69.8 121-69.8 120.9-12.6 21.9h19.1l7.8-13.6 65.1-112.7 37.2 64.4 7.1 12.4 7.2-12.4 37.2-64.4 65.1 112.7 7.8 13.6h19.1l-12.6-21.9-69.9-120.9 69.9-121 15-26 84.9 147-82.5 142.8h19.1l80.1-138.7 2.4-4.1-2.4-4.2-92-159.4 92-159.4 2.4-4.1-2.4-4.2-92-159.4 92-159.4 2.4-4.1-2.4-4.2-92-159.4 92-159.4 2.4-4.1-2.4-4.2-92-159.4 92-159.4 2.4-4.1-2.4-4.2-92-159.4 92-159.4 2.4-4.1-2.4-4.2-92-159.4 92-159.4 2.4-4.2-2.4-4.1-92-159.4 92-159.4 2.4-4.2-2.4-4.1-92-159.4 92-159.4 2.4-4.2-2.4-4.1-92-159.4 92-159.4 2.4-4.2-2.4-4.1-92-159.4 92-159.4 2.4-4.2-2.4-4.1-92-159.4 92-159.4 2.4-4.2-2.4-4.1-116.6-202zm-232 733.2l15-26 69.9-121-69.9-121-15-26-84.8 147zm192.6-147l69.9 121 15 26 84.9-147-84.9-147-15 26zm-46.7-81l37.1 64.4 65.1-112.7 19.8-34.3-19.8-34.2-109.4-189.6-109.4 189.5v0.1l-19.8 34.2 19.8 34.3 65 112.8 37.2-64.4 7.2-12.5zm27.6 408.1l-34.8-60.3-34.8 60.3 34.8 60.3zm-173.5 147l15-26 69.8-121-69.8-121-15-26-84.9 147zm192.7-147l69.8 121 15 26 84.9-147-84.9-147-15 26zm-46.7-81l37.2 64.4 65.1-112.7 19.7-34.3-19.7-34.2-65.1-112.8-37.2 64.5-7.2 12.4-7.1-12.5-37.2-64.4-65.1 112.7v0.1l-19.8 34.2 19.8 34.3 65.1 112.8 37.2-64.4 7.1-12.5zm27.7 408.1l-34.8-60.3-34.8 60.3 34.8 60.3zm-173.6 147l15-26 69.9-121-69.9-121-15-26-84.9 147zm192.7-147l69.9 121 15 26 84.8-147-84.8-147-15 26zm-46.8-81l37.2 64.4 65.1-112.7 19.8-34.3-19.8-34.2-65.1-112.8-37.2 64.5-7.1 12.4-7.2-12.5-37.2-64.4-65.1 112.7v0.1l-19.8 34.2 19.8 34.3 65.1 112.8 37.2-64.4 7.2-12.5zm27.6 408.1l-34.8-60.3-34.8 60.3 34.8 60.3zm-173.6 147l15-26 69.9-121-69.9-121-15-26-84.8 147zm192.6-147l69.9 121 15 26 84.9-147-84.9-147-15 26zm-46.7-81l37.1 64.4 65.1-112.7 19.8-34.3-19.8-34.2-65.1-112.8-37.1 64.5-7.2 12.4-7.2-12.5-37.2-64.4-65 112.7v0.1l-19.8 34.2 19.8 34.3 65 112.8 37.2-64.4 7.2-12.5zm27.6 408.1l-34.8-60.3-34.8 60.3 34.8 60.3zm-173.5 147l15-26 69.8-121-69.8-121-15-26-84.9 147zm192.7-147l69.8 121 15 26 84.9-147-84.9-147-15 26zm-46.7-81l37.2 64.4 65.1-112.7 19.7-34.3-19.7-34.2-65.1-112.8-37.2 64.5-7.2 12.4-7.1-12.5-37.2-64.4-65.1 112.7v0.1l-19.8 34.2 19.8 34.3 65.1 112.8 37.2-64.4 7.1-12.5zm27.7 408.1l-34.8-60.3-34.8 60.3 34.8 60.3zm-173.6 147l15-26 69.9-121-69.9-121-15-26-84.9 147zm192.7-147l69.9 121 15 26 84.8-147-84.8-147-15 26zm-46.8-81l37.2 64.4 65.1-112.7 19.8-34.3-19.8-34.2-65.1-112.7-37.2 64.4-7.1 12.4-7.2-12.5-37.2-64.4-65.1 112.8-19.8 34.2 19.8 34.3 65.1 112.8 37.2-64.4 7.2-12.5zm27.6 408.1l-34.8-60.3-34.8 60.3 34.8 60.3zm-173.6 147l15-26h0.1l69.8-121-69.8-121h-0.1l-15-26-84.8 147zm192.6-147l69.9 121 15 26 84.9-147-84.9-147-15 26zm-46.7-81l37.1 64.4 65.1-112.7 19.8-34.3-19.8-34.2-65.1-112.7-37.1 64.4-7.2 12.4-7.2-12.5-37.2-64.4-65 112.8-19.8 34.2 19.8 34.3 65 112.8 37.2-64.4 7.2-12.5zm27.6 408.1l-34.8-60.3-34.8 60.3 34.8 60.3zm-173.5 147l15-26 69.8-121-69.8-121-15-26-84.9 147zm192.7-147l69.8 121 15 26 84.9-147-84.9-147-15 26zm-46.7-81l37.2 64.4 65.1-112.7 19.7-34.3-19.7-34.2-65.1-112.7-37.2 64.4-7.2 12.4-7.1-12.5-37.2-64.4-65.1 112.8-19.8 34.2 19.8 34.3 65.1 112.8 37.2-64.4 7.1-12.5zm27.7 408.1l-34.8-60.3-34.8 60.3 34.8 60.3zm-173.6 147l15-26 69.9-121-69.9-121-15-26-84.9 147zm192.7-147l69.9 121 15 26 84.8-147-84.8-147-15 26zm-46.8-81l37.2 64.4 65.1-112.7 19.8-34.2-19.8-34.3-65.1-112.7-37.2 64.4-7.1 12.4-7.2-12.5-37.2-64.4-65.1 112.8-19.7 34.3 19.7 34.2 65.1 112.8 37.2-64.4 7.2-12.5zm27.6 408.1l-34.8-60.3-34.8 60.3 34.8 60.3zm-173.6 147l15-26h0.1l69.8-121-69.8-121h-0.1l-15-26-84.8 147zm192.6-147l69.9 121 15 26 84.9-147-84.9-147-15 26zm-46.7-81l37.1 64.4 65.1-112.7 19.8-34.2-19.8-34.3-65.1-112.7-37.1 64.4-7.2 12.4-7.2-12.5-37.2-64.4-65 112.8-19.8 34.3 19.8 34.2 65 112.8 37.2-64.4 7.2-12.5zm27.6 408.1l-34.8-60.3-34.8 60.3 34.8 60.3zm-27.6-81l37.2 64.4 65.1-112.7 19.8-34.3-19.8-34.2-65.1-112.8-37.2 64.5-7.2 12.4-7.1-12.5-37.2-64.4-65.1 112.7v0.1l-19.8 34.2 19.8 34.3 65.1 112.8 37.2-64.4 7.1-12.5zm212.4 223.8h19.1l74.1-128.4 15 26 59.2 102.4h19.1l-63.9-110.7-19.8-34.2 19.8-34.3 65-112.8 37.2 64.4 7.2 12.5 7.2-12.4 37.1-64.4 65.1 112.7 19.8 34.3-19.8 34.2-63.9 110.7h19.1l59.2-102.4 15-26 74.1 128.4h19.1l-83.7-144.9 92.1-159.4 2.4-4.2-2.4-4.1-92.1-159.4 92.1-159.4 2.4-4.2-2.4-4.1-92.1-159.4 92.1-159.4 2.4-4.2-2.4-4.1-92.1-159.4 92.1-159.4 2.4-4.2-2.4-4.1-92.1-159.4 92.1-159.4 2.4-4.2-2.4-4.2-92.1-159.3 92.1-159.4 2.4-4.2-2.4-4.2-92.1-159.4 92.1-159.3 2.4-4.2-2.4-4.2-92.1-159.4 92.1-159.4 2.4-4.1-2.4-4.2-92.1-159.4 92.1-159.4 2.4-4.1-2.4-4.2-92.1-159.4 92.1-159.4 2.4-4.1-2.4-4.2-92.1-159.4 92.1-159.4 2.4-4.1-2.4-4.2-116.6-201.9-116.6-202-7.2-12.4-7.2 12.5-116.6 201.9-116.6 201.9-2.4 4.2 2.4 4.1 92.1 159.4-92.1 159.4-2.4 4.2 2.4 4.1 92.1 159.4-92.1 159.4-2.4 4.2 2.4 4.1 92.1 159.4-92.1 159.4-2.4 4.2 2.4 4.1 92.1 159.4-92.1 159.4-2.4 4.2 2.4 4.2 92.1 159.3-92.1 159.4-2.4 4.2 2.4 4.2 92.1 159.4-92.1 159.3-2.4 4.2 2.4 4.2 92.1 159.4-92.1 159.4-2.4 4.1 2.4 4.2 92.1 159.4-92.1 159.4-2.4 4.1 2.4 4.2 92.1 159.4-92.1 159.4-2.4 4.1 2.4 4.2 92.1 159.4-92.1 159.4-2.4 4.1 2.4 4.2 92.1 159.4zm266.8-3252.5l-34.8-60.2-34.8 60.2 34.8 60.3zm-173.6 147l15-26 69.9-121-69.9-121-15-26-84.9 147zm192.7-147l69.9 121 15 26 84.9-147-84.9-147-15 26zm-46.8-81l37.2 64.5 65.1-112.8 19.8-34.2-19.8-34.3-109.4-189.6-109.5 189.6-19.7 34.3 19.7 34.2v0.1l65.1 112.7 37.2-64.4 7.2-12.4zm27.6 408l-34.8-60.2-34.8 60.2 34.8 60.3zm-173.6 147l15.1-26 69.8-121-69.8-121-15.1-26-84.8 147zm192.7-147l69.8 121 15 26 84.9-147-84.9-147-15 26zm-46.7-80.9l37.2 64.4 65.1-112.8 19.7-34.2-19.7-34.3-65.1-112.7-37.2 64.4-7.2 12.4-7.2-12.4-37.1-64.5-65.1 112.8-19.8 34.3 19.8 34.2v0.1l65.1 112.7 37.1-64.4 7.2-12.4zm27.6 408l-34.8-60.2-34.8 60.2 34.8 60.3zm-173.5 147l15-26 69.9-121-69.9-121-15-26-84.9 147zm192.7-147l69.9 121 15 26 84.8-147-84.8-147-15 26zm-46.8-80.9l37.2 64.4 65.1-112.8 19.8-34.2-19.8-34.3-65.1-112.7-37.2 64.4-7.1 12.4-7.2-12.4-37.2-64.5-65.1 112.8-19.8 34.3 19.8 34.2v0.1l65.1 112.7 37.2-64.4 7.2-12.4zm27.6 408l-34.8-60.2-34.8 60.2 34.8 60.3zm-173.6 147l15-26 69.9-121-69.9-121-15-26-84.9 147zm192.7-147l69.9 121 15 26 84.9-147-84.9-147-15 26zm-46.8-80.9l37.2 64.4 65.1-112.8 19.8-34.2-19.8-34.3-65.1-112.7-37.2 64.4-7.1 12.4-7.2-12.4-37.2-64.4-65.1 112.7-19.7 34.3 19.7 34.2v0.1l65.1 112.7 37.2-64.4 7.2-12.4zm27.6 408l-34.8-60.2-34.8 60.2 34.8 60.3zm-173.6 147l15.1-26 69.8-121-69.8-121-15.1-26-84.8 147zm192.7-147l69.8 121 15 26 84.9-147-84.9-147-15 26zm-46.7-80.9l37.2 64.4 65.1-112.8 19.7-34.2-19.7-34.3-65.1-112.7-37.2 64.4-7.2 12.4-7.2-12.4-37.1-64.5-65.1 112.8-19.8 34.3 19.8 34.2v0.1l65.1 112.7 37.1-64.4 7.2-12.4zm27.6 408l-34.8-60.2-34.8 60.2 34.8 60.3zm-173.5 147l15-26 69.9-121-69.9-121-15-26-84.9 147zm192.7-147l69.9 121 15 26 84.8-147-84.8-147-15 26zm-46.8-80.9l37.2 64.4 65.1-112.8 19.8-34.2-19.8-34.3-65.1-112.7-37.2 64.4-7.1 12.4-7.2-12.4-37.2-64.4-65.1 112.7-19.8 34.3 19.8 34.2v0.1l65.1 112.7 37.2-64.4 7.2-12.4zm27.6 408l-34.8-60.2-34.8 60.2 34.8 60.3zm-173.6 147l15-26 69.9-121-69.9-121-15-26-84.9 147zm192.7-147l69.9 121 15 26 84.9-147-84.9-147-15 26zm-46.8-80.9l37.2 64.4 65.1-112.8 19.8-34.2-19.8-34.3-65.1-112.7-37.2 64.4-7.1 12.4-7.2-12.4-37.2-64.4-65.1 112.7-19.7 34.3 19.7 34.2v0.1l65.1 112.7 37.2-64.4 7.2-12.4zm27.6 408l-34.8-60.2-34.8 60.2 34.8 60.3zm-173.6 147l15.1-26 69.8-121-69.8-121-15.1-26-84.8 147zm192.7-147l69.8 121 15 26 84.9-147-84.9-147-15 26zm-46.7-80.9l37.2 64.4 65.1-112.8 19.7-34.2-19.7-34.3-65.1-112.7-37.2 64.4-7.2 12.4-7.2-12.4-37.1-64.4-65.1 112.7-19.8 34.3 19.8 34.2v0.1l65.1 112.7 37.1-64.4 7.2-12.4zm27.6 408l-34.8-60.2-34.8 60.2 34.8 60.3zm-173.5 147l15-26 69.9-121-69.9-121-15-26-84.9 147zm192.7-147l69.9 121 15 26 84.8-147-84.8-147-15 26zm-46.8-80.9l37.2 64.4 65.1-112.8 19.8-34.2-19.8-34.3-65.1-112.7-37.2 64.4-7.1 12.4-7.2-12.4-37.2-64.4-65.1 112.7-19.8 34.3 19.8 34.2v0.1l65.1 112.7 37.2-64.4 7.2-12.4zm27.6 408l-34.8-60.2-34.8 60.2 34.8 60.3zm-173.6 147l15-26 69.9-121-69.9-121-15-26-84.9 147zm192.7-147l69.9 121 15 26 84.9-147-84.9-147-15 26zm-46.8-80.9l37.2 64.4 65.1-112.8 19.8-34.2-19.8-34.3-65.1-112.7-37.2 64.4-7.1 12.4-7.2-12.4-37.2-64.4-65.1 112.7-19.7 34.3 19.7 34.2v0.1l65.1 112.7 37.2-64.4 7.2-12.4zm533.7-3610.5h-19.1l35.3 61.2 114.2 197.8-84.8 147-15-26-116.6-202-7.2-12.4-7.2 12.5-116.6 201.9-15 26-84.8-147 114.2-197.8 35.3-61.2h-19.1l-30.6 52.9-116.6 202-2.4 4.1 2.4 4.2 92.1 159.4-92.1 159.4-2.4 4.1 2.4 4.2 92.1 159.4-92.1 159.4-2.4 4.1 2.4 4.2 92.1 159.4-92.1 159.4-2.4 4.1 2.4 4.2 92.1 159.4-92.1 159.4-2.4 4.1 2.4 4.2 92.1 159.4-92.1 159.4-2.4 4.1 2.4 4.2 92.1 159.4-92.1 159.4-2.4 4.1 2.4 4.2 92.1 159.4-92.1 159.4-2.4 4.1 2.4 4.2 92.1 159.4-92.1 159.4-2.4 4.1 2.4 4.2 92.1 159.4-92.1 159.4-2.4 4.1 2.4 4.2 92.1 159.4-92.1 159.4-2.4 4.1 2.4 4.2 92.1 159.4-92.1 159.4-2.4 4.1 2.4 4.2 80.1 138.7h19.1l-82.4-142.9 84.8-147 15 26 69.9 121-69.9 121-12.6 21.9h19.1l7.9-13.6 65-112.7 37.2 64.4 7.2 12.4 7.2-12.4 37.2-64.4 65 112.7 7.9 13.6h19.1l-12.6-21.9-69.9-121 69.9-121 15-26 84.8 147-82.4 142.9h19.1l80.1-138.7 2.4-4.2-2.4-4.1-92.1-159.4 92.1-159.4 2.4-4.2-2.4-4.1-92.1-159.4 92.1-159.4 2.4-4.2-2.4-4.1-92.1-159.4 92.1-159.4 2.4-4.2-2.4-4.1-92.1-159.4 92.1-159.4 2.4-4.2-2.4-4.1-92.1-159.4 92.1-159.4 2.4-4.2-2.4-4.1-92.1-159.4 92.1-159.4 2.4-4.2-2.4-4.1-92.1-159.4 92.1-159.4 2.4-4.2-2.4-4.1-92.1-159.4 92.1-159.4 2.4-4.2-2.4-4.1-92.1-159.4 92.1-159.4 2.4-4.2-2.4-4.1-92.1-159.4 92.1-159.4 2.4-4.2-2.4-4.1-92.1-159.4 92.1-159.4 2.4-4.2-2.4-4.1-116.6-202zm-232 733.1l15-26 69.9-121-69.9-121-15-25.9-84.9 146.9zm192.7-146.9l69.9 120.9 15 26 84.8-146.9-84.8-147-15 26zm-46.8-81l37.2 64.4 65.1-112.7 19.8-34.3-19.8-34.3-109.5-189.5-109.4 189.5-19.8 34.3 19.8 34.3 65.1 112.7 37.2-64.4 7.2-12.4zm27.6 408.1l-34.8-60.3-34.8 60.3 34.8 60.2zm-173.6 147l15-26 69.9-121-69.9-121-15-26-84.9 147zm192.7-146.9l69.9 120.9 15 26 84.9-146.9-84.9-147-15 26zm-46.8-81l37.2 64.4 65.1-112.7 19.8-34.3-19.8-34.3-65.1-112.7-37.2 64.4-7.1 12.4-7.2-12.4-37.2-64.4-65.1 112.7-19.7 34.3 19.7 34.3 65.1 112.7 37.2-64.4 7.2-12.4zm27.6 408.1l-34.8-60.3-34.8 60.3 34.8 60.2zm-173.6 147l15.1-26 69.8-121-69.8-121-15.1-26-84.8 147zm192.7-146.9l69.8 120.9 15 26 84.9-146.9-84.9-147-15 26zm-46.7-81l37.2 64.4 65-112.7 19.8-34.3-19.8-34.3-65-112.7-37.2 64.4-7.2 12.4-7.2-12.4-37.1-64.4-65.1 112.7-19.8 34.3 19.8 34.3 65.1 112.7 37.1-64.4 7.2-12.4zm27.6 408.1l-34.8-60.3-34.8 60.3 34.8 60.2zm-173.5 147l15-26 69.9-121-69.9-121v0.1l-15-26-84.9 146.9zm192.7-146.9l69.8 120.9 15.1 26 84.8-146.9-84.8-147-15.1 26zm-46.7-81l37.2 64.4 65.1-112.7 19.8-34.3-19.8-34.2-65.1-112.8-37.2 64.4-7.2 12.4-7.1-12.4-37.2-64.4-65.1 112.7v0.1l-19.8 34.2 19.8 34.3 65.1 112.7 37.2-64.4 7.1-12.4zm27.7 408.1l-34.8-60.3-34.8 60.3 34.8 60.2zm-173.6 147l15-26 69.9-121-69.9-121v0.1l-15-26-84.9 146.9zm192.7-146.9l69.9 120.9 15 26 84.9-146.9-84.9-147-15 26zm-46.8-81l37.2 64.4 65.1-112.7 19.8-34.3-19.8-34.2-65.1-112.8-37.2 64.4-7.1 12.4-7.2-12.4-37.2-64.4-65.1 112.7v0.1l-19.7 34.2 19.7 34.3 65.1 112.7 37.2-64.4 7.2-12.4zm27.6 408.1l-34.8-60.3-34.8 60.3 34.8 60.2zm-173.6 147l15-26h0.1l69.8-121-69.8-121-0.1 0.1-15-26-84.8 146.9zm192.7-146.9l69.8 121 15 25.9 84.9-146.9-84.9-147-15 26zm-46.7-81l37.1 64.4 65.1-112.7 19.8-34.3-19.8-34.2-65.1-112.8-37.1 64.4-7.2 12.4-7.2-12.4-37.2-64.4-65 112.7v0.1l-19.8 34.2 19.8 34.3 65 112.7 37.2-64.4 7.2-12.4zm27.6 408.1l-34.8-60.3-34.8 60.3 34.8 60.3zm-173.5 146.9l15-26 69.8-120.9-69.8-121-15-26-84.9 147zm192.7-147l69.8 121 15 26 84.9-147-84.9-147-15 26zm-46.7-81l37.2 64.4 65.1-112.7 19.7-34.3-19.7-34.2-65.1-112.8-37.2 64.4-7.2 12.4-7.1-12.4-37.2-64.4-65.1 112.7v0.1l-19.8 34.2 19.8 34.3 65.1 112.7 37.2-64.4 7.1-12.4zm27.7 408.1l-34.8-60.3-34.8 60.3 34.8 60.3zm-173.6 146.9l15-26 69.9-120.9-69.9-121-15-26-84.9 147zm192.7-147l69.9 121 15 26 84.8-147-84.8-147-15 26zm-46.8-81l37.2 64.4 65.1-112.7 19.8-34.3-19.8-34.2-65.1-112.8-37.2 64.4-7.1 12.4-7.2-12.4-37.2-64.4-65.1 112.7v0.1l-19.8 34.2 19.8 34.3 65.1 112.7 37.2-64.4 7.2-12.4zm27.6 408.1l-34.8-60.3-34.8 60.3 34.8 60.3zm-173.6 146.9l15-26 69.9-120.9-69.9-121-15-26-84.9 147zm192.7-147l69.9 121 15 26 84.9-147-84.9-147-15 26zm-46.8-81l37.2 64.4 65.1-112.7 19.8-34.3-19.8-34.2-65.1-112.8-37.2 64.4-7.1 12.4-7.2-12.4-37.2-64.4-65.1 112.7v0.1l-19.7 34.2 19.7 34.3 65.1 112.7 37.2-64.4 7.2-12.4zm27.6 408.1l-34.8-60.3-34.8 60.3 34.8 60.3zm-173.6 146.9l15.1-26v0.1l69.8-121-69.8-121-15.1-26-84.8 147zm192.7-147l69.8 121 15 26 84.9-147-84.9-147-15 26zm-46.7-81l37.2 64.4 65-112.7 19.8-34.3-19.8-34.2-65-112.8-37.2 64.4-7.2 12.4-7.2-12.4-37.1-64.4-65.1 112.7v0.1l-19.8 34.2 19.8 34.3 65.1 112.7 37.1-64.4 7.2-12.4zm27.6 408.1l-34.8-60.3-34.8 60.3 34.8 60.3zm-27.6-81l37.2 64.4 65.1-112.7 19.8-34.3-19.8-34.3-65.1-112.7-37.2 64.4-7.1 12.4-7.2-12.4-37.2-64.4-65.1 112.7-19.8 34.3 19.8 34.3 65.1 112.7 37.2-64.4 7.2-12.4zm212.3 223.8h19.1l74.1-128.4 15 26 59.2 102.4h19.1l-63.9-110.7-19.8-34.3 19.8-34.2v-0.1l65-112.7 37.2 64.4 7.2 12.4 7.2-12.4 37.2-64.4 65 112.8 19.8 34.2-19.8 34.3-63.9 110.7h19.1l59.2-102.4 15-26 74.1 128.4h19.1l-83.7-145 92.1-159.4 2.4-4.1-2.4-4.2-92.1-159.4 92.1-159.4 2.4-4.1-2.4-4.2-92.1-159.4 92.1-159.4 2.4-4.1-2.4-4.2-92.1-159.4 92.1-159.4 2.4-4.1-2.4-4.2-92.1-159.4 92.1-159.4 2.4-4.1-2.4-4.2-92.1-159.4 92.1-159.4 2.4-4.1-2.4-4.2-92.1-159.4 92.1-159.4 2.4-4.1-2.4-4.2-92.1-159.4 92.1-159.4 2.4-4.1-2.4-4.2-92.1-159.4 92.1-159.4 2.4-4.1-2.4-4.2-92.1-159.4 92.1-159.4 2.4-4.1-2.4-4.2-92.1-159.4 92.1-159.4 2.4-4.1-2.4-4.2-116.6-202-116.6-201.9-7.2-12.4-7.2 12.4-116.6 202v-0.1l-116.6 202-2.4 4.2 2.4 4.1 92.1 159.4-92.1 159.4-2.4 4.2 2.4 4.1 92.1 159.4-92.1 159.4-2.4 4.2 2.4 4.1 92.1 159.4-92.1 159.4-2.4 4.2 2.4 4.1 92.1 159.4-92.1 159.4-2.4 4.2 2.4 4.1 92.1 159.4-92.1 159.4-2.4 4.2 2.4 4.1 92.1 159.4-92.1 159.4-2.4 4.2 2.4 4.1 92.1 159.4-92.1 159.4-2.4 4.2 2.4 4.1 92.1 159.4-92.1 159.4-2.4 4.2 2.4 4.1 92.1 159.4-92.1 159.4-2.4 4.2 2.4 4.1 92.1 159.4-92.1 159.4-2.4 4.2 2.4 4.1 92.1 159.4zm266.8-3252.4l-34.8-60.3-34.8 60.3 34.8 60.3zm-173.6 147l15-26 69.9-121-69.9-121-15-26-84.8 147zm192.6-147l69.9 121 15 26 84.9-147-84.9-147-15 26zm-46.7-81l37.1 64.4 65.1-112.7 19.8-34.3-19.8-34.2-109.4-189.6-109.4 189.5v0.1l-19.8 34.2 19.8 34.3 65 112.8 37.2-64.4 7.2-12.5zm27.6 408.1l-34.8-60.3-34.8 60.3 34.8 60.3zm-173.6 147l15.1-26 69.8-121-69.8-121-15.1-26-84.8 147zm192.7-147l69.8 121 15 26 84.9-147-84.9-147-15 26zm-46.7-81l37.2 64.4 65.1-112.7 19.7-34.3-19.7-34.2-65.1-112.8-37.2 64.5-7.2 12.4-7.2-12.5-37.1-64.4-65.1 112.7v0.1l-19.8 34.2 19.8 34.3 65.1 112.8 37.1-64.4 7.2-12.5zm27.6 408.1l-34.8-60.3-34.8 60.3 34.8 60.3zm-173.5 147l15-26 69.9-121-69.9-121-15-26-84.9 147zm192.7-147l69.9 121 15 26 84.8-147-84.8-147-15 26zm-46.8-81l37.2 64.4 65.1-112.7 19.8-34.3-19.8-34.2-65.1-112.8-37.2 64.5-7.2 12.4-7.1-12.5-37.2-64.4-65.1 112.7v0.1l-19.8 34.2 19.8 34.3 65.1 112.8 37.2-64.4 7.1-12.5zm27.7 408.1l-34.8-60.3-34.8 60.3 34.8 60.3zm-173.6 147l15-26 69.9-121-69.9-121-15-26-84.9 147zm192.7-147l69.9 121 15 26 84.9-147-84.9-147-15 26zm-46.8-81l37.2 64.4 65.1-112.7 19.8-34.3-19.8-34.2-65.1-112.8-37.2 64.5-7.1 12.4-7.2-12.5-37.2-64.4-65.1 112.7v0.1l-19.7 34.2 19.7 34.3 65.1 112.8 37.2-64.4 7.2-12.5zm27.6 408.1l-34.8-60.3-34.8 60.3 34.8 60.3zm-173.6 147l15-26h0.1l69.8-121-69.8-121h-0.1l-15-26-84.8 147zm192.7-147l69.8 121 15 26 84.9-147-84.9-147-15 26zm-46.7-81l37.2 64.4 65-112.7 19.8-34.3-19.8-34.2-65-112.8-37.2 64.5-7.2 12.4-7.2-12.5-37.2-64.4-65 112.7v0.1l-19.8 34.2 19.8 34.3 65 112.8 37.2-64.4 7.2-12.5zm27.6 408.1l-34.8-60.3-34.8 60.3 34.8 60.3zm-173.5 147l15-26 69.8-121-69.8-121-15-26-84.9 147zm192.7-147l69.8 121 15 26 84.9-147-84.9-147-15 26zm-46.7-81l37.2 64.4 65.1-112.7 19.7-34.3-19.7-34.2-65.1-112.8-37.2 64.5-7.2 12.4-7.1-12.5-37.2-64.4-65.1 112.7v0.1l-19.8 34.2 19.8 34.3 65.1 112.8 37.2-64.4 7.1-12.5zm27.7 408.1l-34.8-60.3-34.8 60.3 34.8 60.3zm-173.6 147l15-26 69.9-121-69.9-121-15-26-84.9 147zm192.7-147l69.9 121 15 26 84.8-147-84.8-147-15 26zm-46.8-81l37.2 64.4 65.1-112.7 19.8-34.3-19.8-34.2-65.1-112.8-37.2 64.5-7.1 12.4-7.2-12.5-37.2-64.4-65.1 112.7v0.1l-19.8 34.2 19.8 34.3 65.1 112.8 37.2-64.4 7.2-12.5zm27.6 408.1l-34.8-60.3-34.8 60.3 34.8 60.3zm-173.6 147l15-26 69.9-121-69.9-121-15-26-84.8 147zm192.6-147l69.9 121 15 26 84.9-147-84.9-147-15 26zm-46.8-81l37.2 64.4 65.1-112.7 19.8-34.3-19.8-34.2-65.1-112.7-37.2 64.4-7.1 12.4-7.2-12.5-37.2-64.4-65 112.7v0.1l-19.8 34.2 19.8 34.3 65 112.8 37.2-64.4 7.2-12.5zm27.6 408.1l-34.8-60.3-34.8 60.3 34.8 60.3zm-173.6 147l15.1-26 69.8-121-69.8-121-15.1-26-84.8 147zm192.7-147l69.8 121 15 26 84.9-147-84.9-147-15 26zm-46.7-81l37.2 64.4 65-112.7 19.8-34.3-19.8-34.2-65-112.7-37.2 64.4-7.2 12.4-7.2-12.5-37.1-64.4-65.1 112.8-19.8 34.2 19.8 34.3 65.1 112.8 37.1-64.4 7.2-12.5zm27.6 408.1l-34.8-60.3-34.8 60.3 34.8 60.3zm-173.5 147l15-26 69.9-121-69.9-121-15-26-84.9 147zm192.7-147l69.9 121 15 26 84.8-147-84.8-147-15 26zm-46.8-81l37.2 64.4 65.1-112.7 19.8-34.2-19.8-34.3-65.1-112.7-37.2 64.4-7.2 12.4-7.1-12.5-37.2-64.4-65.1 112.8-19.8 34.3 19.8 34.2 65.1 112.8 37.2-64.4 7.1-12.5zm533.8-3610.5h-19.2l35.4 61.3 114.2 197.8-84.9 147-15-26-116.6-202-7.1-12.4-7.2 12.4-116.6 202-15 26-84.9-147 114.2-197.8v-0.1l35.4-61.2h-19.1l-30.6 53-116.6 201.9-2.4 4.2 2.4 4.1 92 159.4-92 159.4-2.4 4.2 2.4 4.1 92 159.4-92 159.4-2.4 4.2 2.4 4.1 92 159.4-92 159.4-2.4 4.2 2.4 4.1 92 159.4-92 159.4-2.4 4.2 2.4 4.1 92 159.4-92 159.4-2.4 4.2 2.4 4.1 92 159.4-92 159.4-2.4 4.2 2.4 4.1 92 159.4-92 159.4-2.4 4.2 2.4 4.1 92 159.4-92 159.4-2.4 4.2 2.4 4.1 92 159.4-92 159.4-2.4 4.2 2.4 4.1 92 159.4-92 159.4-2.4 4.2 2.4 4.1 92 159.4-92 159.4-2.4 4.2 2.4 4.1 80.1 138.7h19.1l-82.5-142.8 84.9-147 15 26 69.9 121-69.9 121-12.6 21.8h19.1l7.8-13.5 65.1-112.8 37.2 64.4 7.2 12.5 7.1-12.4 37.2-64.4 65.1 112.7 7.8 13.5h19.1l-12.6-21.8-69.8-121 69.8-121 15-26 84.9 147-82.5 142.8h19.2l80-138.7 2.4-4.1-2.4-4.2-92-159.4 92-159.4 2.4-4.1-2.4-4.2-92-159.4 92-159.4 2.4-4.1-2.4-4.2-92-159.4 92-159.4 2.4-4.1-2.4-4.2-92-159.4 92-159.4 2.4-4.1-2.4-4.2-92-159.4 92-159.4 2.4-4.1-2.4-4.2-92-159.4 92-159.4 2.4-4.1-2.4-4.2-92-159.4 92-159.4 2.4-4.1-2.4-4.2-92-159.4 92-159.4 2.4-4.1-2.4-4.2-92-159.4 92-159.4 2.4-4.1-2.4-4.2-92-159.4 92-159.4 2.4-4.1-2.4-4.2-92-159.4 92-159.4 2.4-4.1-2.4-4.2-116.6-201.9zm-232 733.1l15.1-26 69.8-121-69.8-121-15.1-26-84.8 147zm192.7-147l69.8 121 15 26 84.9-147-84.9-147-15 26zm-46.7-80.9l37.2 64.4 65.1-112.8 19.7-34.2-19.7-34.3-109.5-189.5-109.4 189.5-19.8 34.3 19.8 34.2v0.1l65.1 112.7 37.1-64.4 7.2-12.4zm27.6 408l-34.8-60.2-34.8 60.2 34.8 60.3zm-173.5 147l15-26 69.9-121-69.9-121-15-26-84.9 147zm192.7-147l69.9 121 15 26 84.8-147-84.8-147-15 26zm-46.8-80.9l37.2 64.4 65.1-112.8 19.8-34.2-19.8-34.3-65.1-112.7-37.2 64.4-7.1 12.4-7.2-12.4-37.2-64.4-65.1 112.7-19.8 34.3 19.8 34.2v0.1l65.1 112.7 37.2-64.4 7.2-12.4zm27.6 408l-34.8-60.2-34.8 60.2 34.8 60.3zm-173.6 147l15-26 69.9-121-69.9-121-15-26-84.9 147zm192.7-147l69.9 121 15 26 84.9-147-84.9-147-15 26zm-46.8-80.9l37.2 64.4 65.1-112.8 19.8-34.2-19.8-34.3-65.1-112.7-37.2 64.4-7.1 12.4-7.2-12.4-37.2-64.4-65.1 112.7-19.7 34.3 19.7 34.2v0.1l65.1 112.7 37.2-64.4 7.2-12.4zm27.6 408l-34.8-60.2-34.8 60.2 34.8 60.3zm-173.5 147l15-26 69.8-121-69.8-121-15-26-84.9 147zm192.7-147l69.8 121 15 26 84.9-147-84.9-147-15 26zm-46.7-80.9l37.2 64.4 65.1-112.8 19.7-34.2-19.7-34.3-65.1-112.7-37.2 64.4-7.2 12.4-7.2-12.4-37.1-64.4-65.1 112.7-19.8 34.3 19.8 34.2v0.1l65.1 112.7 37.1-64.4 7.2-12.4zm27.6 408l-34.8-60.2-34.8 60.2 34.8 60.3zm-173.5 147l15-26 69.9-121-69.9-121-15-26-84.9 147zm192.7-147l69.9 121 15 26 84.8-147-84.8-147-15 26zm-46.8-80.9l37.2 64.4 65.1-112.8 19.8-34.2-19.8-34.3-65.1-112.7-37.2 64.4-7.1 12.4-7.2-12.4-37.2-64.4-65.1 112.7-19.8 34.3 19.8 34.2v0.1l65.1 112.7 37.2-64.4 7.2-12.4zm27.6 408l-34.8-60.2-34.8 60.2 34.8 60.3zm-173.6 147l15-26 69.9-121-69.9-121-15-26-84.8 147zm192.6-147l69.9 121 15 26 84.9-147-84.9-147-15 26zm-46.8-80.9l37.2 64.4 65.1-112.8 19.8-34.2-19.8-34.3-65.1-112.7-37.2 64.4-7.1 12.4-7.2-12.4-37.2-64.4-65 112.7-19.8 34.3 19.8 34.2v0.1l65 112.7 37.2-64.4 7.2-12.4zm27.6 408.1l-34.8-60.3-34.8 60.3 34.8 60.2zm-173.5 147l15-26 69.8-121-69.8-121-15-26-84.9 147zm192.7-147l69.8 121 15 26 84.9-147-84.9-147-15 26zm-46.7-80.9l37.2 64.4 65.1-112.8 19.7-34.2-19.7-34.3-65.1-112.7-37.2 64.4-7.2 12.4-7.1-12.4-37.2-64.4-65.1 112.7-19.8 34.3 19.8 34.2v0.1l65.1 112.7 37.2-64.4 7.1-12.4zm27.6 408l-34.7-60.2-34.8 60.2 34.8 60.3zm-173.6 147l15-26 69.9-121-69.9-121-15-26-84.9 147zm192.7-147l69.9 121 15 26 84.8-147-84.8-147-15 26zm-46.8-80.9l37.2 64.4 65.1-112.8 19.8-34.2-19.8-34.3-65.1-112.7-37.2 64.4-7.1 12.4-7.2-12.4-37.2-64.4-65.1 112.7-19.8 34.3 19.8 34.2v0.1l65.1 112.7 37.2-64.4 7.2-12.4zm27.6 408.1l-34.8-60.3-34.8 60.3 34.8 60.2zm-173.6 147l15-26 69.9-121-69.9-121-15-26-84.8 147zm192.6-147l69.9 121 15 26 84.9-147-84.9-147-15 26zm-46.7-80.9l37.1 64.4 65.1-112.8 19.8-34.2-19.8-34.3-65.1-112.7-37.1 64.4-7.2 12.4-7.2-12.4-37.2-64.4-65 112.7-19.8 34.3 19.8 34.2v0.1l65 112.7 37.2-64.4 7.2-12.4zm27.6 408.1l-34.8-60.3-34.8 60.3 34.8 60.2zm-173.5 147l15-26 69.8-121-69.8-121-15-26-84.9 147zm192.7-147l69.8 121 15 26 84.9-147-84.9-147-15 26zm-46.7-80.9l37.2 64.4 65.1-112.7 19.7-34.3-19.7-34.3-65.1-112.7-37.2 64.4-7.2 12.4-7.1-12.4-37.2-64.4-65.1 112.7-19.8 34.3 19.8 34.3 65.1 112.7 37.2-64.4 7.1-12.4zm27.7 408.1l-34.8-60.3-34.8 60.3 34.8 60.2zm-27.7-80.9l37.2 64.4 65.1-112.8 19.8-34.2-19.8-34.3-65.1-112.7-37.2 64.4-7.1 12.4-7.2-12.4-37.2-64.4-65.1 112.7-19.7 34.3 19.7 34.2v0.1l65.1 112.7 37.2-64.4 7.2-12.4zm212.3 223.8h19.1l74.1-128.4 15 26h0.1l59.1 102.4h19.1l-63.9-110.7-19.8-34.3 19.8-34.3 65.1-112.7 37.1 64.4 7.2 12.4 7.2-12.4 37.2-64.4 65.1 112.7 19.7 34.3-19.7 34.3-64 110.7h19.1l59.2-102.4 15-26 74.1 128.4h19.2l-83.7-145 92-159.4 2.4-4.1-2.4-4.2-92-159.4 92-159.4 2.4-4.1-2.4-4.2-92-159.4 92-159.4 2.4-4.1-2.4-4.2-92-159.4 92-159.4 2.4-4.1-2.4-4.2-92-159.4 92-159.4 2.4-4.1-2.4-4.2-92-159.4 92-159.4 2.4-4.2-2.4-4.1-92-159.4 92-159.4 2.4-4.2-2.4-4.1-92-159.4 92-159.4 2.4-4.2-2.4-4.1-92-159.4 92-159.4 2.4-4.2-2.4-4.1-92-159.4 92-159.4 2.4-4.2-2.4-4.1-92-159.4 92-159.4 2.4-4.2-2.4-4.1-116.6-202-116.6-201.9-7.2-12.4-7.2 12.4-116.5 201.9h-0.1l-116.6 202-2.4 4.1 2.4 4.2 92.1 159.4-92.1 159.4-2.4 4.1 2.4 4.2 92.1 159.4-92.1 159.4-2.4 4.1 2.4 4.2 92.1 159.4-92.1 159.4-2.4 4.1 2.4 4.2 92.1 159.4-92.1 159.4-2.4 4.1 2.4 4.2 92.1 159.4-92.1 159.4-2.4 4.1 2.4 4.2 92.1 159.4-92.1 159.4-2.4 4.2 2.4 4.1 92.1 159.4-92.1 159.4-2.4 4.2 2.4 4.1 92.1 159.4-92.1 159.4-2.4 4.2 2.4 4.1 92.1 159.4-92.1 159.4-2.4 4.2 2.4 4.1 92.1 159.4-92.1 159.4-2.4 4.2 2.4 4.1 92.1 159.4zm266.8-3252.4l-34.8-60.3-34.8 60.3 34.8 60.2zm-173.6 147l15-26h0.1l69.8-121-69.8-121h-0.1l-15-26-84.8 147zm192.7-146.9l69.8 120.9 15 26 84.9-146.9-84.9-147-15 26zm-46.7-81l37.2 64.4 65-112.7 19.8-34.3-19.8-34.3-109.4-189.5-109.4 189.5-19.8 34.3 19.8 34.3 65.1 112.7 37.1-64.4 7.2-12.4zm27.6 408.1l-34.8-60.3-34.8 60.3 34.8 60.2zm-173.5 147l15-26 69.9-121-69.9-121v0.1l-15-26-84.9 146.9zm192.7-146.9l69.8 120.9 15.1 26 84.8-146.9-84.8-147-15.1 26zm-46.7-81l37.2 64.4 65.1-112.7 19.8-34.3-19.8-34.2-65.1-112.8-37.2 64.4-7.2 12.4-7.1-12.4-37.2-64.4-65.1 112.7v0.1l-19.8 34.2 19.8 34.3 65.1 112.7 37.2-64.4 7.1-12.4zm27.7 408.1l-34.8-60.3-34.8 60.3 34.8 60.2zm-173.6 147l15-26 69.9-121-69.9-121v0.1l-15-26.1-84.9 147zm192.7-146.9l69.9 120.9 15 26 84.9-146.9-84.9-147-15 26zm-46.8-81l37.2 64.4 65.1-112.7 19.8-34.3-19.8-34.3-65.1-112.7-37.2 64.4-7.1 12.4-7.2-12.4-37.2-64.4-65.1 112.7-19.7 34.3 19.7 34.3 65.1 112.7 37.2-64.4 7.2-12.4zm27.6 408.1l-34.8-60.3-34.8 60.3 34.8 60.2zm-173.6 147l15-26h0.1l69.8-121-69.8-121-0.1 0.1-15-26-84.8 146.9zm192.7-146.9l69.8 120.9 15 26 84.9-146.9-84.9-147-15 26zm-46.7-81l37.2 64.4 65-112.7 19.8-34.3-19.8-34.2-65-112.8-37.2 64.4-7.2 12.4-7.2-12.4-37.1-64.4-65.1 112.7v0.1l-19.8 34.2 19.8 34.3 65.1 112.7 37.1-64.4 7.2-12.4zm27.6 408.1l-34.8-60.3-34.8 60.3 34.8 60.2zm-173.5 147l15-26 69.9-121-69.9-121v0.1l-15-26-84.9 146.9zm192.7-146.9l69.9 120.9 15 26 84.8-146.9-84.8-147-15 26zm-46.8-81l37.2 64.4 65.1-112.7 19.8-34.3-19.8-34.2-65.1-112.8-37.2 64.4-7.2 12.4-7.1-12.4-37.2-64.4-65.1 112.7v0.1l-19.8 34.2 19.8 34.3 65.1 112.7 37.2-64.4 7.1-12.4zm27.7 408.1l-34.8-60.3-34.8 60.3 34.8 60.2zm-173.6 147l15-26 69.9-121-69.9-121v0.1l-15-26-84.9 146.9zm192.7-146.9l69.9 120.9 15 26 84.9-146.9-84.9-147-15 26zm-46.8-81l37.2 64.4 65.1-112.7 19.8-34.3-19.8-34.2-65.1-112.8-37.2 64.4-7.1 12.4-7.2-12.4-37.2-64.4-65.1 112.7v0.1l-19.7 34.2 19.7 34.3 65.1 112.7 37.2-64.4 7.2-12.4zm27.6 408.1l-34.8-60.3-34.8 60.3 34.8 60.2zm-173.6 147l15.1-26 69.8-121-69.8-121v0.1l-15.1-26-84.8 146.9zm192.7-146.9l69.8 120.9 15 26 84.9-146.9-84.9-147-15 26zm-46.7-81l37.2 64.4 65-112.7 19.8-34.3-19.8-34.2-65-112.8-37.2 64.4-7.2 12.4-7.2-12.4-37.1-64.4-65.1 112.7v0.1l-19.8 34.2 19.8 34.3 65.1 112.7 37.1-64.4 7.2-12.4zm27.6 408.1l-34.8-60.3-34.8 60.3 34.8 60.2zm-173.5 147l15-26 69.9-121-69.9-121v0.1l-15-26-84.9 146.9zm192.7-146.9l69.9 120.9 15 26 84.8-146.9-84.8-147-15 26zm-46.8-81l37.2 64.4 65.1-112.7 19.8-34.3-19.8-34.2-65.1-112.8-37.2 64.4-7.2 12.4-7.1-12.4-37.2-64.4-65.1 112.7v0.1l-19.8 34.2 19.8 34.3 65.1 112.7 37.2-64.4 7.1-12.4zm27.7 408.1l-34.8-60.3-34.8 60.3 34.8 60.3zm-173.6 146.9l15-26 69.9-120.9-69.9-121-15-26-84.9 147zm192.7-147l69.9 121 15 26 84.9-147-84.9-147-15 26zm-46.8-81l37.2 64.4 65.1-112.7 19.8-34.3-19.8-34.2-65.1-112.8-37.2 64.4-7.1 12.4-7.2-12.4-37.2-64.4-65.1 112.7v0.1l-19.7 34.2 19.7 34.3 65.1 112.7 37.2-64.4 7.2-12.4zm27.6 408.1l-34.8-60.3-34.8 60.3 34.8 60.3zm-173.6 146.9l15.1-26v0.1l69.8-121-69.8-121-15.1-26-84.8 147zm192.7-147l69.8 121 15 26 84.9-147-84.9-147-15 26zm-46.7-81l37.2 64.4 65-112.7 19.8-34.3-19.8-34.2-65-112.8-37.2 64.4-7.2 12.4-7.2-12.4-37.1-64.4-65.1 112.7v0.1l-19.8 34.2 19.8 34.3 65.1 112.7 37.1-64.4 7.2-12.4zm533.7-3610.5h-19.1l35.4 61.2 114.2 197.8-84.9 147-15-26-116.6-201.9-7.2-12.4-7.1 12.4-116.6 201.9-15 26-84.9-147 114.2-197.8 35.3-61.2h-19.1l-30.5 52.9-116.6 202-2.4 4.2 2.4 4.1 92 159.4-92 159.4-2.4 4.2 2.4 4.1 92 159.4-92 159.4-2.4 4.2 2.4 4.1 92 159.4-92 159.4-2.4 4.2 2.4 4.1 92 159.4-92 159.4-2.4 4.2 2.4 4.1 92 159.4-92 159.4-2.4 4.2 2.4 4.1 92 159.4-92 159.4-2.4 4.2 2.4 4.1 92 159.4-92 159.4-2.4 4.2 2.4 4.1 92 159.4-92 159.4-2.4 4.2 2.4 4.1 92 159.4-92 159.4-2.4 4.2 2.4 4.1 92 159.4-92 159.4-2.4 4.2 2.4 4.1 92 159.4-92 159.4-2.4 4.2 2.4 4.1 80 138.7h19.2l-82.5-142.8 84.9-147 15 26 69.8 121-69.8 121-12.6 21.8h19.1l7.8-13.5v-0.1l65.1-112.7 37.2 64.4 7.1 12.4 7.2-12.4 37.2-64.4 65.1 112.8 7.8 13.5h19.1l-12.6-21.8-69.9-121 69.9-121 15-26 84.9 147-82.5 142.8h19.1l80.1-138.7 2.4-4.1-2.4-4.2-92-159.4 92-159.4 2.4-4.1-2.4-4.2-92-159.4 92-159.4 2.4-4.1-2.4-4.2-92-159.4 92-159.4 2.4-4.1-2.4-4.2-92-159.4 92-159.4 2.4-4.1-2.4-4.2-92-159.4 92-159.4 2.4-4.1-2.4-4.2-92-159.4 92-159.4 2.4-4.1-2.4-4.2-92-159.4 92-159.4 2.4-4.1-2.4-4.2-92-159.4 92-159.4 2.4-4.1-2.4-4.2-92-159.4 92-159.4 2.4-4.1-2.4-4.2-92-159.4 92-159.4 2.4-4.1-2.4-4.2-92-159.4 92-159.4 2.4-4.1-2.4-4.2-116.6-202zm-232 733.2l15-26 69.9-121-69.9-121-15-26-84.9 147zm192.7-147l69.9 121 15 26 84.9-147-84.9-147-15 26zm-46.8-81l37.2 64.4 65.1-112.7 19.8-34.2-19.8-34.3-109.4-189.6-109.5 189.6-19.7 34.3 19.7 34.2 65.1 112.8 37.2-64.4 7.2-12.5zm27.6 408.1l-34.8-60.3-34.8 60.3 34.8 60.3zm-173.6 147l15.1-26 69.8-121-69.8-121-15.1-26-84.8 147zm192.7-147l69.8 121 15 26 84.9-147-84.9-147-15 26zm-46.7-81l37.2 64.4 65-112.7 19.8-34.2-19.8-34.3-65-112.7-37.2 64.4-7.2 12.4-7.2-12.5-37.1-64.4-65.1 112.8-19.8 34.3 19.8 34.2 65.1 112.8 37.1-64.4 7.2-12.5zm27.6 408.1l-34.8-60.3-34.8 60.3 34.8 60.3zm-173.5 147l15-26 69.9-121-69.9-121-15-26-84.9 147zm192.7-147l69.8 121 15.1 26 84.8-147-84.8-147-15.1 26zm-46.7-81l37.2 64.4 65.1-112.7 19.8-34.2-19.8-34.3-65.1-112.7-37.2 64.4-7.2 12.4-7.1-12.5-37.2-64.4-65.1 112.8-19.8 34.3 19.8 34.2 65.1 112.8 37.2-64.4 7.1-12.5zm27.7 408.1l-34.8-60.3-34.8 60.3 34.8 60.3zm-173.6 147l15-26 69.9-121-69.9-121-15-26-84.9 147zm192.7-147l69.9 121 15 26 84.9-147-84.9-147-15 26zm-46.8-81l37.2 64.4 65.1-112.7 19.8-34.2-19.8-34.3-65.1-112.7-37.2 64.4-7.1 12.4-7.2-12.5-37.2-64.4-65.1 112.8-19.7 34.3 19.7 34.2 65.1 112.8 37.2-64.4 7.2-12.5zm27.6 408.1l-34.8-60.3-34.8 60.3 34.8 60.3zm-173.6 147l15-26h0.1l69.8-121-69.8-121h-0.1l-15-26-84.8 147zm192.6-147l69.9 121 15 26 84.9-147-84.9-147-15 26zm-46.7-81l37.1 64.4 65.1-112.7 19.8-34.2-19.8-34.3-65.1-112.7-37.1 64.4-7.2 12.4-7.2-12.5-37.2-64.4-65 112.8-19.8 34.3 19.8 34.2 65 112.8 37.2-64.4 7.2-12.5zm27.6 408.1l-34.8-60.3-34.8 60.3 34.8 60.3zm-173.5 147l15-26 69.8-121-69.8-121-15-26-84.9 147zm192.7-147l69.8 121 15 26 84.9-147-84.9-147-15 26zm-46.7-81l37.2 64.4 65.1-112.7 19.7-34.2-19.7-34.3-65.1-112.7-37.2 64.4-7.2 12.4-7.1-12.5-37.2-64.4-65.1 112.8-19.8 34.3 19.8 34.2 65.1 112.8 37.2-64.4 7.1-12.4zm27.7 408l-34.8-60.3-34.8 60.3 34.8 60.3zm-173.6 147l15-26 69.9-121-69.9-121-15-26-84.9 147zm192.7-147l69.9 121 15 26 84.8-147-84.8-147-15 26zm-46.8-81l37.2 64.4 65.1-112.7 19.8-34.2-19.8-34.3-65.1-112.7-37.2 64.4-7.1 12.4-7.2-12.5-37.2-64.4-65.1 112.8-19.8 34.3 19.8 34.2 65.1 112.8 37.2-64.4 7.2-12.4zm27.6 408l-34.8-60.3-34.8 60.3 34.8 60.3zm-173.6 147l15-26 69.9-121-69.9-121-15-26-84.9 147zm192.7-147l69.9 121 15 26 84.9-147-84.9-147-15 26zm-46.8-81l37.2 64.5 65.1-112.8 19.8-34.2-19.8-34.3-65.1-112.7-37.2 64.4-7.1 12.4-7.2-12.5-37.2-64.4-65.1 112.8-19.7 34.3 19.7 34.2v0.1l65.1 112.7 37.2-64.4 7.2-12.4zm27.6 408l-34.8-60.3-34.8 60.3 34.8 60.3zm-173.6 147l15.1-26 69.8-121-69.8-121-15.1-26-84.8 147zm192.7-147l69.8 121 15 26 84.9-147-84.9-147-15 26zm-46.7-81l37.2 64.5 65-112.8 19.8-34.2-19.8-34.3-65-112.7-37.2 64.4-7.2 12.4-7.2-12.4-37.1-64.5-65.1 112.8-19.8 34.3 19.8 34.2v0.1l65.1 112.7 37.1-64.4 7.2-12.4zm27.6 408l-34.8-60.2-34.8 60.2 34.8 60.3zm-173.5 147l15-26 69.9-121-69.9-121-15-26-84.9 147zm192.7-147l69.8 121 15.1 26 84.8-147-84.8-147-15.1 26zm-46.7-80.9l37.2 64.4 65.1-112.8 19.8-34.2-19.8-34.3-65.1-112.7-37.2 64.4-7.2 12.4-7.1-12.4-37.2-64.5-65.1 112.8-19.8 34.3 19.8 34.2v0.1l65.1 112.7 37.2-64.4 7.1-12.4zm27.7 408l-34.8-60.2-34.8 60.2 34.8 60.3zm-27.7-81l37.2 64.4 65.1-112.7 19.8-34.2-19.8-34.3-65.1-112.7-37.2 64.4-7.1 12.4-7.2-12.5-37.2-64.4-65.1 112.8-19.7 34.3 19.7 34.2 65.1 112.8 37.2-64.4 7.2-12.5zm212.3 223.8h19.1l74.2-128.4 15 26 59.1 102.4h19.1l-63.9-110.6v-0.1l-19.8-34.2 19.8-34.3 65.1-112.7 37.2 64.4 7.1 12.4 7.2-12.4 37.2-64.4 65.1 112.7 19.7 34.3-19.7 34.2-63.9 110.7h19.1l59.1-102.4 15-26 74.1 128.4h19.2l-83.7-144.9 92-159.4 2.4-4.2-2.4-4.1-92-159.4 92-159.4 2.4-4.2-2.4-4.1-92-159.4 92-159.4 2.4-4.2-2.4-4.1-92-159.4 92-159.4 2.4-4.2-2.4-4.1-92-159.4 92-159.4 2.4-4.2-2.4-4.1-92-159.4 92-159.4 2.4-4.2-2.4-4.1-92-159.4 92-159.4 2.4-4.2-2.4-4.1-92-159.4 92-159.4 2.4-4.2-2.4-4.1-92-159.4 92-159.4 2.4-4.2-2.4-4.1-92-159.4 92-159.4 2.4-4.2-2.4-4.1-92-159.4 92-159.4 2.4-4.2-2.4-4.1-116.6-202-116.6-202-7.2-12.4-7.1 12.5-116.6 201.9-116.6 202-2.4 4.1 2.4 4.2 92 159.4-92 159.4-2.4 4.1 2.4 4.2 92 159.4-92 159.4-2.4 4.1 2.4 4.2 92 159.4-92 159.4-2.4 4.1 2.4 4.2 92 159.4-92 159.4-2.4 4.1 2.4 4.2 92 159.4-92 159.4-2.4 4.1 2.4 4.2 92 159.4-92 159.4-2.4 4.1 2.4 4.2 92 159.4-92 159.4-2.4 4.1 2.4 4.2 92 159.4-92 159.4-2.4 4.1 2.4 4.2 92 159.4-92 159.4-2.4 4.1 2.4 4.2 92 159.4-92 159.4-2.4 4.1 2.4 4.2 92 159.4zm266.8-3252.5l-34.8-60.2-34.8 60.2 34.8 60.3zm-173.5 147l15-26 69.8-121-69.8-121-15-26-84.9 147zm192.7-147l69.8 121 15 26 84.9-147-84.9-147-15 26zm-46.7-80.9l37.2 64.4 65.1-112.8 19.7-34.2-19.7-34.3-109.5-189.5-109.4 189.5-19.8 34.3 19.8 34.2v0.1l65.1 112.7 37.1-64.4 7.2-12.4zm27.6 408l-34.8-60.2-34.8 60.2 34.8 60.3zm-173.5 147l15-26 69.9-121-69.9-121-15-26-84.9 147zm192.7-147l69.9 121 15 26 84.8-147-84.8-147-15 26zm-46.8-80.9l37.2 64.4 65.1-112.8 19.8-34.2-19.8-34.3-65.1-112.7-37.2 64.4-7.2 12.4-7.1-12.4-37.2-64.4-65.1 112.7-19.8 34.3 19.8 34.2v0.1l65.1 112.7 37.2-64.4 7.1-12.4zm27.7 408l-34.8-60.2-34.8 60.2 34.8 60.3zm-173.6 147l15-26 69.9-121-69.9-121-15-26-84.9 147zm192.7-147l69.9 121 15 26 84.9-147-84.9-147-15 26zm-46.8-80.9l37.2 64.4 65.1-112.8 19.8-34.2-19.8-34.3-65.1-112.7-37.2 64.4-7.1 12.4-7.2-12.4-37.2-64.4-65.1 112.7-19.7 34.3 19.7 34.2v0.1l65.1 112.7 37.2-64.4 7.2-12.4zm27.6 408l-34.8-60.2-34.8 60.2 34.8 60.3zm-173.6 147l15-26h0.1l69.8-121-69.8-121h-0.1l-15-26-84.8 147zm192.7-147l69.8 121 15 26 84.9-147-84.9-147-15 26zm-46.7-80.9l37.2 64.4 65-112.8 19.8-34.2-19.8-34.3-65-112.7-37.2 64.4-7.2 12.4-7.2-12.4-37.2-64.4-65 112.7-19.8 34.3 19.8 34.2v0.1l65 112.7 37.2-64.4 7.2-12.4zm27.6 408l-34.8-60.2-34.8 60.2 34.8 60.3zm-173.5 147l15-26 69.8-121-69.8-121-15-26-84.9 147zm192.7-147l69.8 121 15.1 26 84.8-147-84.8-147-15.1 26zm-46.7-80.9l37.2 64.4 65.1-112.8 19.7-34.2-19.7-34.3-65.1-112.7-37.2 64.4-7.2 12.4-7.1-12.4-37.2-64.4-65.1 112.7-19.8 34.3 19.8 34.2v0.1l65.1 112.7 37.2-64.4 7.1-12.4zm27.7 408l-34.8-60.2-34.8 60.2 34.8 60.3zm-173.6 147l15-26 69.9-121-69.9-121-15-26-84.9 147zm192.7-147l69.9 121 15 26 84.8-147-84.8-147-15 26zm-46.8-80.9l37.2 64.4 65.1-112.8 19.8-34.2-19.8-34.3-65.1-112.7-37.2 64.4-7.1 12.4-7.2-12.4-37.2-64.4-65.1 112.7-19.8 34.3 19.8 34.2v0.1l65.1 112.7 37.2-64.4 7.2-12.4zm27.6 408l-34.8-60.2-34.8 60.2 34.8 60.3zm-173.6 147l15-26 69.9-121-69.9-121-15-26-84.8 147zm192.6-147l69.9 121 15 26 84.9-147-84.9-147-15 26zm-46.8-80.9l37.2 64.4 65.1-112.8 19.8-34.2-19.8-34.3-65.1-112.7-37.2 64.4-7.1 12.4-7.2-12.4-37.2-64.4-65 112.7-19.8 34.3 19.8 34.2v0.1l65 112.7 37.2-64.4 7.2-12.4zm27.6 408l-34.8-60.2-34.8 60.2 34.8 60.3zm-173.6 147l15.1-26 69.8-121-69.8-121-15.1-26-84.8 147zm192.7-147l69.8 121 15 26 84.9-147-84.9-147-15 26zm-46.7-80.9l37.2 64.4 65-112.8 19.8-34.2-19.8-34.3-65-112.7-37.2 64.4-7.2 12.4-7.2-12.4-37.1-64.4-65.1 112.7-19.8 34.3 19.8 34.2v0.1l65.1 112.7 37.1-64.4 7.2-12.4zm27.6 408l-34.8-60.2-34.8 60.2 34.8 60.3zm-173.5 147l15-26 69.9-121-69.9-121-15-26-84.9 147zm192.7-147l69.9 121 15 26 84.8-147-84.8-147-15 26zm-46.8-80.9l37.2 64.4 65.1-112.8 19.8-34.2-19.8-34.3-65.1-112.7-37.2 64.4-7.2 12.4-7.1-12.4-37.2-64.4-65.1 112.7-19.8 34.3 19.8 34.2v0.1l65.1 112.7 37.2-64.4 7.1-12.4zm27.7 408.1l-34.8-60.3-34.8 60.3 34.8 60.2zm-173.6 147l15-26 69.9-121-69.9-121-15-26-84.9 147zm192.7-147l69.9 121 15 26 84.9-147-84.9-147-15 26zm-46.8-80.9l37.2 64.4 65.1-112.8 19.8-34.2-19.8-34.3-65.1-112.7-37.2 64.4-7.1 12.4-7.2-12.4-37.2-64.4-65.1 112.7-19.7 34.3 19.7 34.2v0.1l65.1 112.7 37.2-64.4 7.2-12.4zm657.3 234.9v-33.1l-68.5-118.7 68.5-118.7v-33.1l-78 135.2-15-26-69.9-121 69.9-121 15-26 78 135.3v-33.1l-68.5-118.7 68.5-118.7v-33.1l-78 135.2-15-26-69.9-121 69.9-121 15-26 78 135.3v-33.1l-68.5-118.7 68.5-118.7v-33.1l-78 135.2-15-26-69.9-121 69.9-121 15-26 78 135.3v-33.1l-68.5-118.7 68.5-118.7v-33.1l-78 135.2-15-26-69.9-121 69.9-121 15-26 78 135.3v-33.1l-68.5-118.7 68.5-118.7v-33.1l-78 135.2-15-26-69.9-121 69.9-121 15-26 78 135.3v-33.1l-68.5-118.7 68.5-118.7v-33.1l-78 135.2-15-26-69.9-121 69.9-121 15-26 78 135.3v-33.2l-68.5-118.6 68.5-118.7v-33.1l-78 135.2-15-26-69.9-121 69.9-121 15-26 78 135.3v-33.2l-68.5-118.6 68.5-118.7v-33.1l-78 135.2-15-26-69.9-121 69.9-121 15-26 78 135.3v-33.2l-68.5-118.6 68.5-118.7v-33.1l-78 135.2-15-26-69.9-121 69.9-121 15-26 78 135.3v-33.2l-68.5-118.6 68.5-118.7v-33.1l-78 135.2-15-26-69.9-121 69.9-121 15-26 78 135.3v-33.2l-68.5-118.6 68.5-118.7v-33.1l-78 135.2-15-26-116.6-201.9-7.2-12.4-7.2 12.4-116.6 201.9-15 26-84.9-147 114.3-197.8 35.3-61.2h-19.1l-30.6 52.9-116.6 202-2.4 4.1 2.4 4.2 92 159.4-92 159.4-2.4 4.1 2.4 4.2 92 159.4-92 159.4-2.4 4.1 2.4 4.2 92 159.4-92 159.4-2.4 4.1 2.4 4.2 92 159.4-92 159.4-2.4 4.1 2.4 4.2 92 159.4-92 159.4-2.4 4.1 2.4 4.2 92 159.4-92 159.4-2.4 4.1 2.4 4.2 92 159.4-92 159.4-2.4 4.1 2.4 4.2 92 159.4-92 159.4-2.4 4.1 2.4 4.2 92 159.4-92 159.4-2.4 4.1 2.4 4.2 92 159.4-92 159.4-2.4 4.1 2.4 4.2 92 159.4-92 159.4-2.4 4.1 2.4 4.2 80.1 138.7h19.1l-82.5-142.9 84.9-147 15 26 69.9 121-69.9 121-12.6 21.9h19.1l7.9-13.6 65-112.7 37.2 64.4 7.2 12.4 7.2-12.4 37.1-64.4 65.1 112.7 7.8 13.6h19.2l-12.6-21.9-69.9-121 69.9-121 15-26zm-355.7-3112.2l15-26h0.1l69.8-121-69.8-121h-0.1l-15-26-84.8 147zm145.9-228l37.2 64.4 65.1-112.7 19.8-34.3-19.8-34.2-109.5-189.6-109.4 189.5v0.1l-19.8 34.2 19.8 34.3 65.1 112.8 37.2-64.4 7.1-12.5zm27.7 408.1l-34.8-60.3-34.8 60.3 34.8 60.3zm-173.6 147l15-26 69.9-121-69.9-121-15-26-84.9 147zm146-228l37.2 64.4 65.1-112.7 19.7-34.3-19.7-34.2-65.1-112.8-37.2 64.5-7.2 12.4-7.2-12.5-37.1-64.4-65.1 112.7v0.1l-19.8 34.2 19.8 34.3 65.1 112.8 37.1-64.4 7.2-12.5zm27.6 408.1l-34.8-60.3-34.8 60.3 34.8 60.3zm-173.5 147l15-26 69.9-121-69.9-121-15-26-84.9 147zm146-228l37.1 64.4 65.1-112.7 19.8-34.3-19.8-34.2-65.1-112.8-37.1 64.5-7.2 12.4-7.2-12.5-37.2-64.4-65 112.7v0.1l-19.8 34.2 19.8 34.3 65 112.8 37.2-64.5 7.2-12.4zm27.6 408.1l-34.8-60.3-34.8 60.3 34.8 60.3zm-173.5 147l15-26 69.8-121-69.8-121-15-26-84.9 147zm145.9-228l37.2 64.4 65.1-112.7 19.8-34.3-19.8-34.2-65.1-112.8-37.2 64.4-7.1 12.4-7.2-12.4-37.2-64.4-65.1 112.7v0.1l-19.7 34.2 19.7 34.3 65.1 112.8 37.2-64.5 7.2-12.4zm27.6 408.1l-34.8-60.3-34.8 60.3 34.8 60.3zm-173.6 147l15-26h0.1l69.8-121-69.8-121h-0.1l-15-26-84.8 147zm145.9-228l37.2 64.4 65.1-112.7 19.8-34.3-19.8-34.2-65.1-112.8-37.2 64.4-7.2 12.4-7.1-12.4-37.2-64.4-65.1 112.7v0.1l-19.8 34.2 19.8 34.3 65.1 112.7 37.2-64.4 7.1-12.4zm27.7 408.1l-34.8-60.3-34.8 60.3 34.8 60.3zm-173.6 146.9l15-25.9 69.9-121-69.9-121-15-26-84.9 147zm146-228l37.2 64.4 65.1-112.7 19.7-34.3-19.7-34.2-65.1-112.8-37.2 64.4-7.2 12.4-7.1-12.4-37.2-64.4-65.1 112.7v0.1l-19.8 34.2 19.8 34.3 65.1 112.7 37.2-64.4 7.1-12.4zm27.6 408.1l-34.7-60.3-34.8 60.3 34.8 60.3zm-173.6 146.9l15-26v0.1l69.9-121-69.9-121-15-26-84.9 147zm146-228l37.1 64.4 65.1-112.7 19.8-34.3-19.8-34.2-65.1-112.8-37.1 64.4-7.2 12.4-7.2-12.4-37.2-64.4-65 112.7v0.1l-19.8 34.2 19.8 34.3 65 112.7 37.2-64.4 7.2-12.4zm27.6 408.1l-34.8-60.3-34.8 60.3 34.8 60.3zm-173.5 146.9l15-26v0.1l69.8-121-69.8-121-15-26-84.9 147zm145.9-228l37.2 64.4 65.1-112.7 19.8-34.3-19.8-34.2-65.1-112.8-37.2 64.4-7.1 12.4-7.2-12.4-37.2-64.4-65.1 112.7v0.1l-19.7 34.2 19.7 34.3 65.1 112.7 37.2-64.4 7.2-12.4zm27.6 408.1l-34.8-60.3-34.8 60.3 34.8 60.3zm-173.6 146.9l15-26h0.1l69.8-120.9-69.8-121h-0.1l-15-26-84.8 147zm145.9-228l37.2 64.4 65.1-112.7 19.8-34.3-19.8-34.2-65.1-112.8-37.2 64.4-7.2 12.4-7.1-12.4-37.2-64.4-65.1 112.7v0.1l-19.8 34.2 19.8 34.3 65.1 112.7 37.2-64.4 7.1-12.4zm27.7 408.1l-34.8-60.3-34.8 60.3 34.8 60.2zm-173.6 147l15-26 69.9-121-69.9-121v0.1l-15-26-84.9 146.9zm146-227.9l37.2 64.4 65.1-112.7 19.7-34.3-19.7-34.3-65.1-112.7-37.2 64.4-7.2 12.4-7.1-12.4-37.2-64.4-65.1 112.7-19.8 34.3 19.8 34.3 65.1 112.7 37.2-64.4 7.1-12.4zm27.7 408.1l-34.8-60.3-34.8 60.3 34.8 60.2zm-27.7-80.9l37.2 64.4 65.1-112.7 19.8-34.3-19.8-34.3-65.1-112.7-37.2 64.4-7.1 12.4-7.2-12.4-37.2-64.4-65.1 112.7-19.7 34.3 19.7 34.3 65.1 112.7 37.2-64.4 7.2-12.4zm-498 223.8h19l24.1-41.7 24.1 41.7h19.1l-36-62.4-7.2-12.4-7.1 12.4zm50.3-3660.5l116.6 202 15 26 84.9-147-114.2-197.8-109.5-189.6-109.4 189.5v0.1l-114.2 197.8 84.9 147 15-26 116.6-201.9 7.1-12.5zm-949.5 3660.5h19.1l24.1-41.7 24 41.7h19.2l-36.1-62.3-7.1-12.4-7.2 12.4zm50.3-3660.5l116.7 201.9 15 26 84.8-146.9-114.2-197.9-109.4-189.5-109.5 189.5-114.2 197.9 84.9 146.9 15-26 116.6-201.9 7.2-12.4zm-949.5 3660.5h19.1l24-41.7 24.1 41.7h19.1l-36-62.4-7.2-12.4-7.1 12.4zm50.3-3660.5l116.6 202 15 26 84.9-147-114.2-197.8-109.5-189.6-109.4 189.6-114.2 197.8 84.9 147 15-26 116.6-201.9 7.1-12.5zm-949.5 3660.6h19.1l24.1-41.7 24.1 41.7h19.1l-36-62.4-7.2-12.4-7.2 12.4zm50.4-3660.5l116.6 202 15 26 84.8-147-114.2-197.8-109.4-189.6-109.4 189.5v0.1l-114.2 197.8 84.8 147 15-26 116.6-202 7.2-12.4zm-949.5 3660.5h19.1l24-41.7 24.1 41.7h19.1l-36-62.4-7.2-12.4-7.1 12.5zm50.3-3660.5l116.6 201.9 15 26 84.9-147-114.2-197.8-109.5-189.6-109.4 189.6-114.2 197.8 84.9 147 15-26 116.6-201.9 7.1-12.4zm-949.5 3660.5h19.1l24.1-41.7 24.1 41.7h19.1l-36-62.4-7.2-12.4-7.2 12.4zm50.4-3660.5l116.6 202 15 26 84.8-147-114.2-197.8-109.4-189.6-109.4 189.5v0.1l-114.2 197.8 84.8 147 15-26 116.6-202 7.2-12.4zm-949.5 3660.5h19.1l24-41.7 24.1 41.7h19.1l-36-62.4-7.1-12.4-7.2 12.5zm50.3-3660.5l116.6 201.9 15 26 84.9-147-114.2-197.8-109.5-189.5-109.4 189.5-114.2 197.8 84.9 147 15-26 116.6-201.9 7.2-12.4zm-949.6 3660.5h19.1l24.1-41.7 24.1 41.7h19.1l-36-62.4-7.2-12.4-7.2 12.4zm50.4-3660.5l116.6 202 15 26 84.8-147-114.2-197.8-109.4-189.6-109.4 189.5v0.1l-114.2 197.8 84.8 147 15-26h0.1l116.5-201.9 7.2-12.5zm-949.5 3660.5h19.1l24-41.7 24.1 41.7h19.1l-36-62.4-7.1-12.3-7.2 12.4zm50.3-3660.5l116.6 201.9 15 26 84.9-147-114.2-197.8-109.5-189.5-109.4 189.5-114.2 197.8 84.9 147 15-26 116.6-201.9 7.2-12.4zm-949.6 3660.5h19.1l24.1-41.7 24.1 41.7h19.1l-36-62.4-7.2-12.4-7.2 12.4zm50.4-3660.5l116.6 202 15 26 84.9-147-114.3-197.8-109.4-189.6-109.4 189.6-114.2 197.8 84.8 147 15-26h0.1l116.5-201.9 7.2-12.5zm475.3 246.7l-34.8-60.3-34.8 60.3 34.8 60.3zm899.2 0l-34.8-60.3-34.8 60.3 34.8 60.2zm899.2 0l-34.8-60.2-34.8 60.2 34.8 60.3zm899.2 0l-34.8-60.3-34.8 60.3 34.8 60.3zm899.2 0l-34.8-60.3-34.8 60.3 34.8 60.3zm899.2 0l-34.8-60.3-34.8 60.3 34.8 60.2zm899.2 0l-34.8-60.2-34.8 60.2 34.8 60.3zm899.1 0l-34.8-60.3-34.8 60.3 34.8 60.3zm899.2 0l-34.8-60.3-34.8 60.3 34.8 60.3zm1081.3-338.9v-33.1l-93.1-161.2-30.6-53h-19.1l35.4 61.3zm0 187.2v-28.1l-5.8 9.9-2.3 4.1 2.3 4.2zm0 327.1v-28.1l-5.7 9.9-2.4 4.1 2.4 4.2zm0 327.1v-28.1l-5.7 9.9-2.4 4.1 2.4 4.2zm0 327.1v-28.1l-5.7 9.9-2.4 4.1 2.4 4.2zm0 327.1v-28.1l-5.7 9.9-2.4 4.1 2.4 4.2zm0 327.1v-28.1l-5.7 9.9-2.4 4.1 2.4 4.2zm0 327.1v-28.1l-5.7 9.9-2.4 4.1 2.4 4.2zm0 327.1v-28.1l-5.8 9.9-2.4 4.1 2.4 4.2zm0 327.1v-28.1l-5.7 9.9-2.4 4.1 2.4 4.2zm0 327.1v-28.1l-5.7 9.9-2.4 4.1 2.4 4.2zm0 327.1v-28.1l-5.7 9.9-2.4 4.1 2.4 4.2zm-182.1-3119.4l-34.8-60.3-34.8 60.3 34.8 60.3zm182.1 3315.9v-33.2l-75.7 131.1h19.1z"/>
</svg>